<svg width="35" height="48" viewBox="0 0 35 48" fill="none" xmlns="http://www.w3.org/2000/svg">
<path d="M4.43213 38.7662V14.6038L8.42808 11.7451L8.83445 19.0279L11.3404 20.3892L12.7627 19.0279V14.6038L15.2686 13.3786L17.5036 12.0854H19.2646L23.2605 13.3786L25.9019 12.0854L28.5433 13.3786V40.4678L25.0214 44.3474L12.1531 45.4364L6.46397 42.7139L4.43213 38.7662Z" fill="#FFC774" stroke="black"/>
<path d="M18.7598 37.2007H16.5781H9.80527C9.10812 37.2007 8.54102 37.7688 8.54102 38.4712C8.54102 39.1736 9.10812 39.7417 9.80527 39.7417H16.5781H18.7598C19.4588 39.7417 20.0241 39.1736 20.0241 38.4712C20.0241 37.7688 19.4588 37.2007 18.7598 37.2007Z" fill="#282828"/>
<path d="M23.9829 37.2025C23.9685 37.2007 23.9522 37.2007 23.9378 37.2007H22.5381C21.8391 37.2007 21.2738 37.7688 21.2738 38.4712C21.2738 39.1736 21.8391 39.7417 22.5381 39.7417H23.9378C23.9522 39.7417 23.9685 39.7417 23.9829 39.7399C24.6602 39.7163 25.202 39.1591 25.202 38.4712C25.202 37.7833 24.6602 37.2261 23.9829 37.2025Z" fill="#282828"/>
<path d="M16.578 22.7714C15.8791 22.7714 15.3138 23.3395 15.3138 24.0419V34.206C15.3138 34.9085 15.8791 35.4766 16.578 35.4766C17.277 35.4766 17.8423 34.9085 17.8423 34.206V24.0419C17.8423 23.3395 17.277 22.7714 16.578 22.7714Z" fill="#282828"/>
<path d="M10.7083 35.4766C10.0101 35.4766 9.44403 34.9077 9.44403 34.206V27.309C9.44403 26.6073 10.0101 26.0385 10.7083 26.0385C11.4065 26.0385 11.9725 26.6073 11.9725 27.309V34.206C11.9725 34.9077 11.4065 35.4766 10.7083 35.4766Z" fill="#282828"/>
<path d="M22.7187 26.0385C22.0197 26.0385 21.4544 26.6066 21.4544 27.309V34.206C21.4544 34.9085 22.0197 35.4766 22.7187 35.4766C23.4158 35.4766 23.9829 34.9085 23.9829 34.206V27.309C23.9829 26.6066 23.4158 26.0385 22.7187 26.0385Z" fill="#282828"/>
<path d="M32.4715 32.6505C32.4715 34.3947 31.3571 35.8667 29.7624 36.3168V19.8618C31.3571 20.312 32.4715 21.7821 32.4715 23.5282V32.6505ZM27.6998 11.9229C27.084 11.9229 26.5205 11.5563 26.264 10.9918C26.0744 10.5762 25.677 10.2949 25.2237 10.2549C24.7668 10.215 24.3315 10.4237 24.0732 10.7994C23.6217 11.4565 22.8812 11.8485 22.0901 11.8485C21.1636 11.8485 20.3094 11.3004 19.9138 10.4528C19.7206 10.039 19.3196 9.76125 18.8663 9.72495C18.4148 9.69047 17.9741 9.90283 17.7194 10.2822C17.2246 11.0191 16.5527 11.5981 15.7833 11.972C15.2993 12.2115 14.7737 12.3694 14.2301 12.4366C14.0296 12.462 13.8255 12.4747 13.6196 12.4747C12.946 12.4747 12.2976 12.3404 11.7016 12.0917V18.1739C11.7016 18.6748 11.297 19.0505 10.7985 19.0505H10.6179C10.1195 19.0505 9.7149 18.6748 9.7149 18.1739V10.5562C9.5957 10.402 9.48372 10.2404 9.38258 10.0698C9.10264 9.60335 8.55901 9.3674 8.02802 9.48537C7.65958 9.56523 7.35616 9.80482 7.18639 10.1261C7.11053 10.2658 7.06177 10.4219 7.04371 10.5871C6.98411 11.1334 6.73667 11.6144 6.37004 11.972C6.23639 12.1026 6.08468 12.2152 5.92213 12.3095C5.58981 12.5019 5.20331 12.6108 4.79333 12.6108C4.26596 12.6108 3.78012 12.4275 3.39362 12.1226C2.86625 11.7051 2.52851 11.059 2.52851 10.3348C2.52851 9.07881 3.54353 8.05695 4.79333 8.05695C5.4381 8.05695 6.05397 8.33828 6.48563 8.82652C6.67888 9.04432 6.93354 9.18226 7.20445 9.23127C7.44104 9.27664 7.69209 9.25305 7.92507 9.15322C8.42355 8.94087 8.7342 8.43085 8.69266 7.88815C8.68182 7.74114 8.6764 7.62135 8.6764 7.50882C8.6764 7.23656 8.69807 6.97338 8.74142 6.71384C8.74142 6.71021 8.74323 6.70476 8.74323 6.70113C9.12611 4.34523 11.167 2.5411 13.6196 2.5411C16.0488 2.5411 18.1493 4.35975 18.5069 6.7701C18.5737 7.22386 18.8789 7.60501 19.3034 7.77018C19.7296 7.93353 20.21 7.85548 20.5604 7.56326C20.9957 7.20389 21.5248 7.01331 22.0901 7.01331C23.1521 7.01331 24.1003 7.72843 24.3983 8.75211C24.4796 9.03162 24.6512 9.26939 24.8787 9.43092C25.0106 9.5253 25.1605 9.59609 25.323 9.6342C25.6806 9.71951 26.0545 9.64146 26.3471 9.43092C26.4175 9.3801 26.4807 9.32383 26.5403 9.25849C26.8456 8.92816 27.2573 8.74666 27.6998 8.74666C28.2362 8.74666 28.713 9.0171 28.9984 9.43092C29.1754 9.68684 29.2801 9.99903 29.2801 10.3348C29.2801 11.2096 28.5704 11.9229 27.6998 11.9229ZM27.2339 38.4622C27.2339 40.6057 25.8793 42.408 23.9829 43.0996C23.9739 43.1032 23.9667 43.105 23.9576 43.1086C23.4393 43.2956 22.8848 43.3718 22.3051 43.3718H10.8509C8.12916 43.3718 5.92213 41.1974 5.92213 38.4622V15.0176C6.37184 14.9087 6.79627 14.7362 7.18639 14.5094V18.1739C7.18639 20.076 8.72517 21.5916 10.6179 21.5916H10.7985C12.6913 21.5916 14.2301 20.076 14.2301 18.1739V14.9903C15.0482 14.925 15.8411 14.7217 16.578 14.4023C17.3528 14.0683 18.068 13.6 18.6929 13.0192C19.596 13.8814 20.8096 14.3896 22.0901 14.3896C22.7494 14.3896 23.3923 14.2571 23.9829 14.0084C24.3423 13.8596 24.6819 13.669 24.9961 13.4385C25.6174 13.9866 26.3958 14.3406 27.2339 14.4349V38.4622ZM29.7624 17.2591V13.9031C30.9851 13.188 31.8087 11.8558 31.8087 10.3348C31.8087 8.05695 29.9647 6.20563 27.6998 6.20563C27.1436 6.20563 26.5963 6.31998 26.0924 6.53778C25.1804 5.27271 23.6994 4.47228 22.0901 4.47228C21.5646 4.47228 21.0462 4.55578 20.5532 4.71913C19.437 1.93852 16.7026 7.49385e-05 13.6196 7.49385e-05C10.0924 7.49385e-05 7.12679 2.47032 6.34837 5.7791C5.85169 5.60667 5.32793 5.51592 4.79333 5.51592C2.14923 5.51592 0 7.67761 0 10.3348C0 12.5001 1.43041 14.3387 3.39362 14.9413V38.4622C3.39362 42.5986 6.73487 45.9128 10.8509 45.9128H22.3051C26.2676 45.9128 29.4806 42.84 29.7172 38.9214C32.7243 38.435 35 35.8086 35 32.6505V23.5282C35 20.3755 32.7623 17.7528 29.7624 17.2591Z" fill="#282828"/>
<path d="M21.4544 27.3089V34.206C21.4544 34.9084 22.0197 35.4765 22.7187 35.4765C23.4158 35.4765 23.9829 34.9084 23.9829 34.206V37.2026C23.9685 37.2008 23.9522 37.2008 23.9378 37.2008H22.5381C21.8391 37.2008 21.2738 37.7689 21.2738 38.4713C21.2738 39.1737 21.8391 39.7418 22.5381 39.7418H23.9378C23.9522 39.7418 23.9685 39.7418 23.9829 39.74V43.0996C23.9739 43.1032 23.9667 43.105 23.9576 43.1086C23.4393 43.2956 22.8848 43.3718 22.3051 43.3718H16.578V39.7418H18.7597C19.4587 39.7418 20.024 39.1737 20.024 38.4713C20.024 37.7689 19.4587 37.2008 18.7597 37.2008H16.578V35.4765C17.277 35.4765 17.8423 34.9084 17.8423 34.206V24.0419C17.8423 23.3394 17.277 22.7713 16.578 22.7713V14.4023C17.3528 14.0683 18.068 13.6 18.6929 13.0192C19.596 13.8814 20.8096 14.3896 22.0902 14.3896C22.7494 14.3896 23.3923 14.2571 23.9829 14.0084V27.3089C23.9829 26.6065 23.4158 26.0384 22.7187 26.0384C22.0197 26.0384 21.4544 26.6065 21.4544 27.3089Z" fill="white"/>
<path d="M30.4848 48H3.35697C2.65874 48 2.09271 47.4312 2.09271 46.7295C2.09271 46.0278 2.65874 45.459 3.35697 45.459H30.4848C31.183 45.459 31.7491 46.0278 31.7491 46.7295C31.7491 47.4312 31.183 48 30.4848 48Z" fill="#282828"/>
</svg>
