<svg width="42" height="48" viewBox="0 0 42 48" fill="none" xmlns="http://www.w3.org/2000/svg">
<path d="M35.2667 21.6143H1.30872L3.30624 32.2737L7.92122 39.2623L14.396 42.9331H19.9753L25.7612 41.3801L30.6517 35.8033L34.5779 27.3322L35.2667 21.6143Z" fill="#FFC774" stroke="black"/>
<path d="M14.8791 37.498C14.7759 37.498 14.671 37.4852 14.5663 37.4583C9.52683 36.1673 7.58312 30.2528 7.50285 30.0015C7.28188 29.3099 7.64979 28.5658 8.32445 28.3391C8.99856 28.1125 9.7241 28.4888 9.94598 29.1791C9.9739 29.2642 11.5539 33.9699 15.1899 34.9016C15.8789 35.078 16.2977 35.7935 16.1256 36.4994C15.9795 37.0982 15.4551 37.498 14.8791 37.498Z" fill="#282828"/>
<path d="M28.515 16.2622C28.112 16.2622 27.7152 16.0687 27.4645 15.7058C27.0542 15.1118 27.1914 14.2896 27.7709 13.869L27.9559 13.7348C28.5475 13.3049 28.8902 12.6774 28.8959 12.0137C28.9016 11.3418 28.5793 10.7268 27.9884 10.2816L27.6618 10.0356C26.3845 9.07346 25.672 7.63583 25.707 6.09146C25.7423 4.53918 26.5255 3.12828 27.8559 2.22074C28.447 1.81771 29.2453 1.98167 29.6387 2.58745C30.0322 3.19322 29.872 4.01115 29.2809 4.41456C28.659 4.83887 28.2933 5.47251 28.2778 6.15264C28.2626 6.82524 28.5932 7.46641 29.1849 7.91218L29.5114 8.15821C30.7671 9.10396 31.4801 10.5175 31.4673 12.0363C31.4546 13.5567 30.7164 14.9597 29.4424 15.8852L29.2569 16.0197C29.0313 16.1835 28.7719 16.2622 28.515 16.2622Z" fill="#282828"/>
<path d="M21.8994 16.2622C21.4966 16.2622 21.0999 16.0687 20.8491 15.7061C20.4386 15.1122 20.5756 14.2898 21.1551 13.8692L21.3399 13.735C21.9319 13.3049 22.2747 12.6774 22.2802 12.0137C22.2859 11.3418 21.9637 10.7266 21.3728 10.2816L21.0462 10.0358C19.7689 9.07346 19.0564 7.63583 19.0913 6.09146C19.1266 4.53918 19.9098 3.12828 21.2404 2.22074C21.8315 1.81771 22.6296 1.98167 23.0232 2.58745C23.4166 3.19322 23.2565 4.01115 22.6652 4.41456C22.0432 4.83887 21.6775 5.47251 21.6623 6.15264C21.647 6.82524 21.9775 7.46641 22.5693 7.91218L22.8957 8.15821C24.1515 9.10415 24.8646 10.5175 24.8517 12.0363C24.8389 13.5569 24.1008 14.9597 22.8266 15.8852L22.6417 16.0196C22.4159 16.1833 22.1564 16.2622 21.8994 16.2622Z" fill="#282828"/>
<path d="M30.8583 46H4.53082C3.82053 46 3.24506 45.41 3.24506 44.6823C3.24506 43.9545 3.82053 43.3646 4.53082 43.3646H30.8583C31.5684 43.3646 32.1441 43.9545 32.1441 44.6823C32.1441 45.41 31.5684 46 30.8583 46Z" fill="#282828"/>
<path d="M33.755 22.5319C33.294 32.1325 27.7541 40.2421 20.6237 41.7368C27.6917 36.1497 26.9643 26.1086 26.439 22.5319H33.755Z" fill="white"/>
<path d="M39.3132 29.9017C38.9513 32.1155 37.6839 33.8492 35.5477 35.0577C34.5063 35.647 33.2774 36.0799 32.0156 36.3246C34.0764 33.2148 35.5183 29.4085 36.0933 25.2181C36.817 25.1598 37.7813 25.3217 38.4683 25.9278C39.5465 26.8841 39.5226 28.6178 39.3132 29.9017ZM20.6237 41.7009C19.8302 41.8704 19.0146 41.9739 18.1844 41.9739C9.91325 41.9739 3.12625 33.2619 2.61378 22.5318H33.755C33.294 32.1324 27.7542 40.2063 20.6237 41.7009ZM40.1489 23.9343C39.0303 22.9441 37.5958 22.562 36.3339 22.5714C36.3559 22.0989 36.3688 21.6226 36.3688 21.1426V19.8964H0V21.1426C0 33.196 7.10844 43.1486 16.2061 44.4192C16.8545 44.5096 17.5213 44.5566 18.1881 44.5566C22.5817 44.5566 26.6172 42.5368 29.7655 39.1822C34.1793 39.1709 40.7826 36.8611 41.848 30.3384C42.4266 26.8032 41.2437 24.9037 40.1489 23.9343Z" fill="#282828"/>
</svg>
