<svg width="24" height="24" viewBox="0 0 24 24" fill="none" xmlns="http://www.w3.org/2000/svg">
<path d="M2.09998 10.3937C2.09998 4.93049 6.53367 0.5 12 0.5C17.4663 0.5 21.9 4.93049 21.9 10.3937C21.9 14.4964 19.8471 17.7662 17.612 19.9998C16.4936 21.1175 15.3234 21.9824 14.3273 22.5694C13.8294 22.8629 13.3714 23.089 12.982 23.2427C12.6018 23.3928 12.2585 23.4854 12 23.4854C11.7414 23.4854 11.3981 23.3928 11.018 23.2427C10.6285 23.089 10.1706 22.8629 9.67265 22.5694C8.67659 21.9824 7.50638 21.1175 6.38791 19.9998C4.15285 17.7662 2.09998 14.4964 2.09998 10.3937Z" fill="#25C8AA" stroke="#009D81" stroke-linecap="square"/>
<path d="M12 7.49585C10.399 7.49585 9.09998 8.79441 9.09998 10.3938C9.09998 11.9931 10.3991 13.2917 12 13.2917C13.6009 13.2917 14.9 11.9931 14.9 10.3938C14.9 8.79441 13.6009 7.49585 12 7.49585Z" fill="white" stroke="#009D81" stroke-linecap="square"/>
</svg>
