<svg width="48" height="48" viewBox="0 0 48 48" fill="none" xmlns="http://www.w3.org/2000/svg">
<circle cx="24" cy="24" r="22.8" fill="#FFC774"/>
<path d="M24 45.745C12.0098 45.745 2.25503 35.9902 2.25503 24C2.25503 12.0098 12.0098 2.25503 24 2.25503C35.9902 2.25503 45.745 12.0098 45.745 24C45.745 35.9902 35.9902 45.745 24 45.745ZM24 1.40012e-08C10.7663 1.40012e-08 0 10.7663 0 24C0 37.2337 10.7663 48 24 48C37.2337 48 48 37.2337 48 24C48 10.7663 37.2337 1.40012e-08 24 1.40012e-08Z" fill="#282828"/>
<path d="M43.0148 20.1115C41.6754 13.5664 36.9397 8.07108 30.6557 5.77014C30.0701 5.55559 29.4232 5.85647 29.2093 6.44117C28.9952 7.02603 29.2956 7.67355 29.8803 7.88761C35.4354 9.92181 39.6219 14.779 40.8056 20.5636C40.9149 21.0974 41.3847 21.4653 41.9092 21.4653C41.9841 21.4653 42.0599 21.4578 42.1363 21.4421C42.7463 21.3173 43.1396 20.7217 43.0148 20.1115Z" fill="#282828"/>
<path d="M23.9725 4.59034C19.5805 4.59034 15.4364 6.01971 11.9881 8.72381C11.4982 9.10798 11.4123 9.8167 11.7965 10.3067C12.0191 10.5903 12.3501 10.7385 12.6846 10.7385C12.928 10.7385 13.1732 10.6601 13.3795 10.4982C16.427 8.10851 20.09 6.84537 23.9725 6.84537C24.5952 6.84537 25.1 6.34057 25.1 5.71785C25.1 5.09514 24.5952 4.59034 23.9725 4.59034Z" fill="#282828"/>
<path d="M36.5609 20.3479C36.5799 21.2533 36.4767 22.1435 36.2534 22.9966C36.1083 23.564 35.9092 24.1172 35.6587 24.6469C35.4458 24.3742 35.2205 24.1123 34.9856 23.863C35.0133 23.7998 35.0396 23.7375 35.0658 23.6715C35.0658 23.6715 35.065 23.6702 35.0665 23.6694C35.5062 22.592 35.7254 21.4247 35.698 20.2238C35.6528 18.0896 34.7791 16.1012 33.236 14.6231C31.6937 13.1466 29.6689 12.3593 27.5345 12.4047C25.7272 12.4425 24.0344 13.1219 22.7124 14.3271C22.5879 14.4416 22.4666 14.5618 22.3482 14.6842C21.7843 15.2728 21.3282 15.9398 20.9899 16.6578C20.746 17.1729 20.5661 17.7172 20.4472 18.2757C20.3393 18.1935 20.2309 18.1135 20.1175 18.0381C20.2722 17.311 20.53 16.6208 20.8714 15.982C21.295 15.1856 21.8529 14.4696 22.518 13.8677C23.8754 12.6265 25.6697 11.8545 27.6492 11.8118C29.9786 11.7601 32.1902 12.6192 33.8737 14.235C35.5589 15.8441 36.5113 18.0155 36.5609 20.3479ZM38.5437 26.4941C38.4911 26.8156 38.3179 27.0986 38.0537 27.2903C37.8274 27.4536 37.5575 27.5343 37.283 27.5202C37.2001 27.3029 37.1084 27.0867 37.0111 26.8736C37.3458 26.3397 37.6358 25.7844 37.8807 25.208C38.055 25.294 38.2081 25.4212 38.3256 25.5844C38.3561 25.6264 38.383 25.6686 38.4079 25.7137C38.5386 25.9508 38.5854 26.2229 38.5437 26.4941ZM33.1594 22.3149C32.4923 21.8658 31.7736 21.4896 31.0121 21.1958C30.682 21.0672 30.3419 20.959 29.9968 20.8617C30.342 20.959 30.682 21.0669 31.0122 21.1953C31.5153 19.9502 31.2651 18.4659 30.26 17.4506C29.6075 16.7904 28.7363 16.4243 27.808 16.4174C26.8794 16.4125 26.0254 16.7527 25.3661 17.4067C24.4251 18.3362 24.1473 19.6598 24.4992 20.8461C23.974 20.9941 23.4642 21.1832 22.9724 21.4119C22.817 21.0764 22.6366 20.7493 22.4322 20.4352C22.5095 20.2785 22.5514 20.1009 22.5468 19.9159C22.5257 18.9232 22.7859 17.9706 23.2883 17.1436C23.4803 16.8245 23.7111 16.5225 23.9761 16.2458C24.9275 15.2525 26.2089 14.6877 27.5833 14.6584C29.1161 14.6264 30.5677 15.1909 31.6759 16.2539C32.7824 17.3139 33.41 18.7391 33.4443 20.2727C33.4602 20.9756 33.3623 21.6622 33.1594 22.3149ZM28.793 20.5789C28.0973 20.4677 27.4148 20.4564 26.722 20.4564H26.7214C26.4703 19.9732 26.5347 19.4043 26.9313 19.0139C26.9682 18.9773 27.0063 18.9494 27.046 18.919C27.2603 18.754 27.5208 18.6682 27.795 18.6705C28.1211 18.6716 28.4286 18.7964 28.658 19.0284C29.0769 19.4538 29.1219 20.1059 28.793 20.5789ZM35.3823 28.9265C35.4123 29.0277 35.4408 29.1298 35.468 29.2324C35.835 30.6321 35.8438 32.1096 35.4807 33.5532C34.8516 36.0555 33.2847 38.1644 31.0726 39.4868C28.8585 40.8121 26.2614 41.1953 23.7604 40.5655C20.6943 39.7948 18.2711 37.7611 16.9078 35.1576C16.6797 34.7207 16.4813 34.2672 16.3134 33.8025C16.1495 33.3483 16.0169 32.8807 15.9154 32.4033C15.8595 32.1417 15.8143 31.8759 15.779 31.6085C15.6028 30.3079 15.6682 28.9549 16.0069 27.6076C16.1608 27.0023 15.7945 26.3914 15.19 26.239C14.5855 26.0866 13.973 26.4537 13.8221 27.0574C13.6585 27.7048 13.547 28.3566 13.4871 29.0022C11.0874 28.2925 9.55753 25.8638 10.023 23.3487C10.4436 21.0753 12.2062 19.3845 14.3395 18.9406C14.7713 18.8497 15.219 18.8109 15.6703 18.8288C15.9352 18.8389 16.201 18.8673 16.4697 18.9177C16.894 18.9966 17.306 19.1169 17.6959 19.2772C18.6129 19.6528 19.4248 20.2445 20.0655 21.0133C20.1905 21.1632 20.3107 21.3212 20.4224 21.4841C20.6645 21.8362 20.866 22.2052 21.0294 22.5916C20.9124 22.6799 20.7966 22.7732 20.6858 22.8692C20.0839 23.3757 19.542 23.954 19.0688 24.5938C18.7768 24.9882 18.511 25.407 18.2785 25.846C17.9012 26.5561 17.6045 27.3193 17.4005 28.1305C17.3875 28.1801 17.3743 28.2297 17.364 28.2777C17.133 29.2601 17.0626 30.2536 17.1488 31.2305C17.2153 31.9884 17.3749 32.7354 17.626 33.4578C17.8356 34.0614 18.1086 34.6503 18.4449 35.2135C19.7269 37.3558 21.7682 38.8735 24.1912 39.482C26.4292 40.0453 28.7535 39.704 30.7354 38.5176C32.7156 37.3323 34.1185 35.4463 34.681 33.2069C34.9887 31.9834 35.0048 30.7312 34.7382 29.5336C34.5617 28.7463 34.2672 27.9816 33.8533 27.2642C33.8331 27.2277 33.8107 27.1903 33.7892 27.1544C33.6323 26.8933 33.4622 26.6449 33.2811 26.4063C32.8198 25.7997 32.2801 25.2679 31.6762 24.8227C30.8492 24.2136 29.9041 23.7634 28.8772 23.5056C28.6121 23.4384 28.3447 23.387 28.0765 23.3509C27.7365 23.3012 27.396 23.2773 27.0558 23.281C25.9001 23.2797 24.7626 23.5518 23.7185 24.0833C23.5681 24.1607 23.4176 24.2417 23.2712 24.3298C22.937 24.5306 22.6193 24.7553 22.3236 25.0031C22.0026 25.2682 21.7252 25.5923 21.4573 25.9072C21.2363 26.167 20.9685 26.3348 20.8672 26.7585L20.8657 26.7593C20.6078 27.0854 20.4079 27.4936 20.2406 27.904C20.1087 28.2287 19.9919 28.5506 19.9041 28.8951C19.868 29.0401 19.8563 29.1754 19.8746 29.3123C19.9336 29.7562 20.2544 30.1347 20.7148 30.2525C21.3199 30.4026 21.9303 30.035 22.0812 29.4313C22.1094 29.3256 22.1382 29.2177 22.1715 29.1148C22.2981 28.7139 22.4732 28.3341 22.6891 27.9816C22.6897 27.9794 22.6918 27.9765 22.6937 27.9734C22.9267 27.5986 23.2071 27.2565 23.5288 26.9522C23.787 26.7032 24.0787 26.4817 24.3924 26.2904C24.4052 26.2834 24.4171 26.2749 24.4298 26.268C25.6103 25.5602 26.9936 25.3568 28.3286 25.6933C28.8113 25.8152 29.2714 25.9956 29.6982 26.2295C30.4081 26.6198 31.028 27.1571 31.518 27.8159C31.6383 27.9739 31.7503 28.1403 31.853 28.3136C31.9334 28.4459 32.0067 28.5821 32.0748 28.7192C32.431 29.4352 32.6276 30.2059 32.6636 30.9916C32.6872 31.5451 32.6333 32.1047 32.4933 32.6581C32.0789 34.312 31.0412 35.7061 29.5761 36.5817C28.1132 37.4579 26.3954 37.7116 24.7421 37.2949C22.9025 36.8339 21.3531 35.6813 20.3794 34.0551C20.0742 33.5447 19.8363 33.0063 19.6699 32.4508C19.4362 31.6765 19.3374 30.8702 19.3806 30.0609C19.3843 29.9743 19.3895 29.8868 19.3982 29.7992C19.4315 29.426 19.4937 29.0515 19.587 28.6801C19.6789 28.3165 19.7946 27.9659 19.9318 27.631C20.103 27.2074 20.3095 26.8047 20.5453 26.4282C20.8237 25.9824 21.1474 25.5686 21.505 25.193C21.6661 25.0214 21.8341 24.8591 22.0103 24.7049C22.508 24.2631 23.061 23.8884 23.6517 23.5885C24.3708 23.2216 25.1471 22.9647 25.9548 22.8284C26.9868 22.6586 28.0675 22.6939 29.1452 22.9642C29.2064 22.9784 29.2647 22.994 29.3239 23.0111C30.3348 23.287 31.2727 23.7338 32.1046 24.329C32.7164 24.7681 33.2707 25.2846 33.7536 25.8737C33.7937 25.9233 33.8431 25.9677 33.8734 26.0228L33.8742 26.0241C34.0064 26.264 34.2041 26.4677 34.355 26.7045C34.4078 26.7839 34.4576 26.8649 34.5064 26.9466C34.8841 27.5753 35.1752 28.2407 35.3823 28.9265ZM14.5296 35.4112C14.6898 35.777 14.8675 36.1352 15.0613 36.4842C14.8675 36.135 14.6897 35.7766 14.5294 35.4109C14.4431 35.5779 14.319 35.723 14.1628 35.8367C13.8986 36.0284 13.5747 36.1048 13.2542 36.0535C12.932 36.003 12.6474 35.8269 12.4557 35.5629C12.2642 35.2987 12.1863 34.9739 12.2368 34.6517C12.2887 34.3289 12.4588 34.0401 12.723 33.8486C12.7606 33.8212 12.7941 33.7888 12.833 33.7642L12.8697 33.7713C12.9185 33.783 12.9657 33.7921 13.013 33.8009C13.3347 33.8608 13.658 33.9034 13.9805 33.9278C14.1328 34.4343 14.3155 34.9294 14.5296 35.4112ZM11.4423 33.3738C11.7283 33.4783 12.0229 33.569 12.3233 33.6468C11.9308 33.5532 11.5408 33.42 11.1633 33.2647C11.2561 33.3016 11.3479 33.3398 11.4423 33.3738ZM35.4339 12.6043C33.3129 10.575 30.5327 9.49214 27.6012 9.55577C25.1923 9.60699 22.9956 10.4998 21.2874 11.949C20.7051 12.4374 20.1816 12.9926 19.7231 13.5986C18.9668 14.6058 18.3908 15.7565 18.0489 17.0045C17.671 16.8761 17.2805 16.7751 16.8796 16.7018C12.658 15.9167 8.58706 18.7181 7.80569 22.9396C7.08891 26.8145 9.62889 30.5514 13.48 31.3217C13.4821 31.3389 13.4821 31.3555 13.4842 31.3727C13.4887 31.4475 13.4961 31.5243 13.5056 31.5982C13.4781 31.595 13.4526 31.5887 13.4243 31.5841C13.2049 31.5431 12.9903 31.4942 12.7795 31.4355C9.02003 30.3978 6.60988 26.626 7.33133 22.7229C7.74126 20.5104 8.98846 18.5888 10.844 17.3139C12.6983 16.04 14.94 15.562 17.1538 15.9712C17.7646 16.0852 18.3539 15.6793 18.4664 15.0693C18.5801 14.4548 18.1759 13.8684 17.5629 13.7538C14.7572 13.235 11.9171 13.8386 9.56623 15.4562C7.21391 17.0711 5.63409 19.5072 5.11528 22.313C4.28913 26.7668 6.61101 31.0857 10.5021 32.9761C10.5022 32.9762 10.5024 32.9762 10.5026 32.9764C10.2526 33.3715 10.0888 33.8278 10.0139 34.3027C9.8676 35.2184 10.0876 36.1381 10.6325 36.8898C11.1775 37.6416 11.9831 38.1354 12.8995 38.2831C13.6715 38.4057 14.4439 38.2686 15.1181 37.897C15.2452 37.827 15.3683 37.75 15.4873 37.6623C15.5566 37.6113 15.6252 37.5588 15.6899 37.5027C17.4097 40.0255 20.0233 41.9506 23.2095 42.7526C26.2952 43.5291 29.4994 43.0559 32.2296 41.4221C32.6394 41.1779 33.0303 40.9126 33.4014 40.6253C35.5136 39.0013 37.0082 36.7281 37.6678 34.1041C38.0333 32.6518 38.098 31.1743 37.873 29.7385C38.2693 29.6765 38.6533 29.5457 39.0087 29.3498C39.1358 29.2797 39.2589 29.2027 39.3779 29.1151C39.5923 28.9602 39.7842 28.7844 39.9544 28.5894C40.3819 28.1037 40.6664 27.5053 40.7698 26.8488C40.9154 25.9317 40.696 25.0134 40.1503 24.2604C39.7444 23.7006 39.1927 23.2838 38.5595 23.046C38.7501 22.1538 38.8372 21.2339 38.8161 20.2984C38.7517 17.3654 37.5512 14.6336 35.4339 12.6043Z" fill="#282828"/>
<path d="M29.432 31.0356C29.432 32.35 28.3609 33.4211 27.0465 33.4211C25.7306 33.4211 24.6594 32.35 24.6594 31.0356C24.6594 29.7197 25.7306 28.6485 27.0465 28.6485C28.3609 28.6485 29.432 29.7197 29.432 31.0356Z" fill="white"/>
</svg>
