<svg width="32" height="32" viewBox="0 0 32 32" fill="none" xmlns="http://www.w3.org/2000/svg">
<path d="M2.6333 13.8583C2.6333 6.48184 8.61962 0.5 16 0.5C23.3803 0.5 29.3666 6.48184 29.3666 13.8583C29.3666 19.3871 26.6 23.7867 23.6005 26.7843C22.099 28.2849 20.5275 29.4465 19.1877 30.2361C18.518 30.6308 17.8995 30.9365 17.3705 31.1453C16.8586 31.3474 16.377 31.4805 16 31.4805C15.623 31.4805 15.1414 31.3474 14.6294 31.1453C14.1004 30.9365 13.4819 30.6308 12.8122 30.2361C11.4725 29.4465 9.90095 28.2849 8.3994 26.7843C5.39993 23.7867 2.6333 19.3871 2.6333 13.8583Z" fill="#FFA927" stroke="#F19203" stroke-linecap="square"/>
<path d="M15.9999 10.1611C13.9573 10.1611 12.2999 11.818 12.2999 13.8583C12.2999 15.8987 13.9573 17.5556 15.9999 17.5556C18.0425 17.5556 19.6999 15.8987 19.6999 13.8583C19.6999 11.818 18.0425 10.1611 15.9999 10.1611Z" fill="white" stroke="#F19203" stroke-linecap="square"/>
</svg>
