<svg width="50" height="48" viewBox="0 0 50 48" fill="none" xmlns="http://www.w3.org/2000/svg">
<ellipse cx="25.8904" cy="24.1812" rx="22.1122" ry="22.2886" fill="#FFC774"/>
<path d="M26.19 45.745C14.2947 45.745 4.61713 35.9902 4.61713 24C4.61713 12.0098 14.2947 2.25504 26.19 2.25504C38.0852 2.25504 47.7628 12.0098 47.7628 24C47.7628 35.9902 38.0852 45.745 26.19 45.745ZM26.19 1.99676e-06C13.0611 1.99676e-06 2.37994 10.7663 2.37994 24C2.37994 37.2337 13.0611 48 26.19 48C39.3189 48 50 37.2337 50 24C50 10.7663 39.3189 1.99676e-06 26.19 1.99676e-06Z" fill="#282828"/>
<path d="M45.0543 20.1115C43.7257 13.5664 39.0275 8.07108 32.7931 5.77014C32.2121 5.55575 31.5703 5.85647 31.3581 6.44117C31.1457 7.02603 31.4438 7.67355 32.0238 7.88762C37.5351 9.92182 41.6885 14.7788 42.8627 20.5636C42.971 21.0974 43.437 21.4653 43.9574 21.4653C44.0317 21.4653 44.107 21.4578 44.1828 21.4421C44.7879 21.3173 45.1781 20.7217 45.0543 20.1115Z" fill="#282828"/>
<path d="M26.1628 4.59034C21.8055 4.59034 17.6942 6.01971 14.2731 8.72381C13.787 9.10798 13.7018 9.8167 14.0831 10.3067C14.3038 10.5903 14.6322 10.7385 14.9641 10.7385C15.2055 10.7385 15.4489 10.6601 15.6536 10.4982C18.677 8.10851 22.311 6.84537 26.1628 6.84537C26.7805 6.84537 27.2814 6.34057 27.2814 5.71785C27.2814 5.09514 26.7805 4.59034 26.1628 4.59034Z" fill="#282828"/>
<path d="M25.5827 30.161L24.4817 32.0778L23.3615 34.03L22.2605 35.9452C22.2206 36.0128 22.163 36.0402 22.1215 36.0515C22.0816 36.0627 22.0176 36.0676 21.9505 36.0289L21.7428 35.9081C21.6757 35.8678 21.6485 35.8115 21.6373 35.7696C21.6261 35.7277 21.6213 35.6633 21.6613 35.5956L22.7623 33.6788L23.8825 31.7282L24.9835 29.8115C25.025 29.739 25.1017 29.6971 25.18 29.6971C25.2184 29.6971 25.2583 29.7084 25.2935 29.7277L25.5012 29.8501C25.5684 29.8888 25.5955 29.9468 25.6067 29.9886C25.6163 30.0305 25.6227 30.0933 25.5827 30.161ZM17.2396 25.2917L16.1386 27.2085L15.0184 29.1591L13.9174 31.0759C13.8775 31.1435 13.82 31.1709 13.7784 31.1822C13.7385 31.1935 13.6745 31.1983 13.6074 31.158L13.3997 31.0372C13.3326 30.9986 13.3054 30.9406 13.2942 30.8987C13.283 30.8568 13.2782 30.794 13.3182 30.7264L14.4192 28.8096L15.5394 26.8574L16.6404 24.9406C16.6803 24.8746 16.7363 24.8456 16.7778 24.8359C16.7954 24.8311 16.8146 24.8278 16.8386 24.8278C16.8705 24.8278 16.9105 24.8343 16.9504 24.8584L17.1581 24.9792C17.2652 25.0421 17.302 25.1822 17.2396 25.2917ZM29.9756 35.2848L26.4185 33.2085L27.5195 31.2917C27.8487 30.7167 27.9366 30.0482 27.7672 29.4072C27.5978 28.7661 27.1919 28.2297 26.6214 27.8979L26.4137 27.7771C25.2392 27.0909 23.7291 27.4968 23.0483 28.6807L21.9473 30.5975L21.0253 30.0595L22.1998 28.0155C22.5082 27.4759 22.326 26.7865 21.7923 26.474C21.257 26.1631 20.573 26.3468 20.263 26.8848L19.0885 28.9304L18.0754 28.3376L19.1764 26.4209C19.8572 25.237 19.4545 23.7148 18.2783 23.0286L18.0706 22.9062C17.5017 22.5744 16.8386 22.4858 16.2026 22.6566C15.5666 22.8273 15.0344 23.238 14.7052 23.8115L13.6042 25.7282L12.6822 25.1903L13.8567 23.1446C14.1651 22.6066 13.9829 21.9172 13.4492 21.6048C12.9139 21.2923 12.23 21.4759 11.9199 22.0155L10.7454 24.0595L1.68003 18.7682C1.14471 18.4558 0.460771 18.6394 0.150761 19.1774C-0.159248 19.717 0.0245182 20.4064 0.558246 20.7188L9.62523 26.0117L8.39638 28.1476C8.08637 28.6872 8.27014 29.3766 8.80387 29.689C8.98124 29.7921 9.173 29.8405 9.36316 29.8405C9.74988 29.8405 10.1254 29.6391 10.3331 29.2783L11.5604 27.1409L12.4824 27.6788L11.3814 29.5956C11.0522 30.169 10.9627 30.8391 11.1321 31.4802C11.3015 32.1213 11.709 32.656 12.2795 32.9895L12.4856 33.1103C12.866 33.3325 13.2894 33.4453 13.7161 33.4453C13.9302 33.4453 14.1443 33.4179 14.3553 33.3615C14.9913 33.1892 15.5234 32.7801 15.8526 32.205L16.9536 30.2899L17.9683 30.881L16.7395 33.0184C16.4295 33.558 16.6132 34.2474 17.147 34.5599C17.3243 34.663 17.5161 34.7113 17.7063 34.7113C18.093 34.7113 18.4685 34.51 18.6762 34.1492L19.9035 32.0117L20.8255 32.5497L19.7245 34.4665C19.3953 35.0399 19.3058 35.7084 19.4752 36.3495C19.6462 36.9905 20.0521 37.5269 20.6226 37.8587L20.8287 37.9795C21.209 38.2018 21.6325 38.3162 22.0592 38.3162C22.2733 38.3162 22.4874 38.2872 22.6984 38.2308C23.3344 38.0601 23.8665 37.6493 24.1957 37.0759L25.2967 35.1591L28.8554 37.2354C29.0312 37.3384 29.2246 37.3884 29.4147 37.3884C29.7998 37.3884 30.1754 37.187 30.3831 36.8246C30.6931 36.2866 30.5109 35.5972 29.9756 35.2848Z" fill="#282828"/>
<path d="M17.1582 24.9793L16.9504 24.8585C16.9105 24.8343 16.8705 24.8279 16.8386 24.8279C16.8146 24.8279 16.7954 24.8311 16.7778 24.8359C16.7363 24.8456 16.6804 24.8746 16.6404 24.9406L15.5394 26.8574L14.4192 28.8096L13.3182 30.7264C13.2782 30.794 13.283 30.8569 13.2942 30.8987C13.3054 30.9406 13.3326 30.9986 13.3997 31.0373L13.6074 31.1581C13.6745 31.1983 13.7385 31.1935 13.7784 31.1822C13.82 31.1709 13.8775 31.1436 13.9174 31.0759L15.0184 29.1591L16.1386 27.2085L17.2396 25.2918C17.302 25.1822 17.2652 25.0421 17.1582 24.9793Z" fill="white"/>
<path d="M25.6067 29.9887C25.5955 29.9468 25.5683 29.8888 25.5012 29.8502L25.2935 29.7277C25.2583 29.7084 25.2184 29.6971 25.18 29.6971C25.1017 29.6971 25.025 29.739 24.9835 29.8115L23.8825 31.7283L22.7623 33.6789L21.6613 35.5957C21.6213 35.6633 21.6261 35.7277 21.6373 35.7696C21.6485 35.8115 21.6756 35.8679 21.7428 35.9081L21.9505 36.029C22.0176 36.0676 22.0815 36.0628 22.1215 36.0515C22.163 36.0402 22.2206 36.0128 22.2605 35.9452L23.3615 34.03L24.4817 32.0778L25.5827 30.161C25.6227 30.0934 25.6163 30.0306 25.6067 29.9887Z" fill="white"/>
<path d="M44.8369 29.1253L41.4971 27.1763L41.8582 26.5465C42.7659 24.9664 41.8502 22.7806 39.7744 21.5693C39.5188 21.4195 39.2119 21.3776 38.9259 21.455C38.6399 21.5323 38.3954 21.7207 38.2468 21.9801L36.8277 24.4509L35.7699 23.8324L36.9987 21.6966C37.3087 21.157 37.125 20.4676 36.5912 20.1551C36.4139 20.052 36.2221 20.0037 36.0319 20.0037C35.6452 20.0037 35.2697 20.205 35.062 20.5658L33.8347 22.7033L32.9127 22.1653L34.0137 20.2485C34.3429 19.6751 34.4324 19.005 34.263 18.364C34.0936 17.7229 33.6861 17.1881 33.1156 16.8547L32.9095 16.7339C32.5292 16.5116 32.1057 16.3989 31.679 16.3989C31.4649 16.3989 31.2508 16.4262 31.0398 16.4826C30.4038 16.655 29.8717 17.0641 29.5425 17.6391L28.4415 19.5543L27.4268 18.9631L28.6556 16.8257C28.9656 16.2861 28.7819 15.5967 28.2481 15.2842C28.0708 15.1811 27.879 15.1328 27.6889 15.1328C27.3021 15.1328 26.9266 15.3342 26.7189 15.695L25.4916 17.8324L24.5696 17.2944L25.6706 15.3776C25.9998 14.8042 26.0893 14.1358 25.9199 13.4947C25.7489 12.8536 25.343 12.3172 24.7725 11.9854L24.5664 11.8646C24.1861 11.6423 23.7626 11.528 23.3359 11.528C23.1218 11.528 22.9077 11.557 22.6967 11.6133C22.0607 11.7841 21.5286 12.1948 21.1994 12.7682L20.0984 14.685L16.5397 12.6088C16.3639 12.5057 16.1706 12.4558 15.9804 12.4558C15.5953 12.4558 15.2197 12.6571 15.012 13.0195C14.702 13.5575 14.8842 14.2469 15.4195 14.5594L18.9766 16.6356L17.8756 18.5524C17.5464 19.1274 17.4585 19.7959 17.6279 20.437C17.7973 21.078 18.2032 21.6144 18.7737 21.9462L18.9814 22.067C20.1559 22.7532 21.666 22.3473 22.3468 21.1634L23.4478 19.2466L24.3698 19.7846L23.1953 21.8286C22.8869 22.3682 23.0691 23.0576 23.6028 23.3701C24.1381 23.681 24.8221 23.4974 25.1321 22.9594L26.3066 20.9138L27.3197 21.5065L26.2187 23.4233C25.538 24.6072 25.9407 26.1293 27.1168 26.8155L27.3245 26.9379C27.8934 27.2697 28.5566 27.3583 29.1926 27.1876C29.8286 27.0168 30.3607 26.6061 30.6899 26.0327L31.7909 24.1159L32.7129 24.6539L31.5384 26.6995C31.23 27.2375 31.4122 27.9269 31.9459 28.2394C32.4812 28.5519 33.1652 28.3682 33.4752 27.8286L34.6497 25.7846L35.706 26.4015L34.3093 28.8321C33.9993 29.3717 34.1815 30.0611 34.7168 30.3736C35.5494 30.8601 36.465 31.121 37.3247 31.121C37.4142 31.121 37.5037 31.1178 37.5916 31.1129C38.6766 31.0421 39.5683 30.5347 40.0365 29.718L40.3753 29.1269L43.7151 31.0759C44.2504 31.3884 44.9343 31.2048 45.2444 30.6668C45.5544 30.1272 45.3706 29.4378 44.8369 29.1253Z" fill="#282828"/>
<path d="M23.7339 14.2487L22.6329 16.1655L21.5127 18.1161L20.4117 20.0329C20.3701 20.1053 20.2934 20.1472 20.2151 20.1472C20.1768 20.1472 20.1368 20.1359 20.1017 20.1166L19.8939 19.9942C19.8268 19.9555 19.7996 19.8976 19.7885 19.8557C19.7789 19.8138 19.7725 19.751 19.8124 19.6833L20.9134 17.7665L22.0336 15.8143L23.1346 13.8992C23.1746 13.8315 23.2321 13.8041 23.2737 13.7929C23.3136 13.7816 23.3775 13.7767 23.4447 13.8154L23.6524 13.9362C23.7195 13.9765 23.7467 14.0329 23.7579 14.0747C23.769 14.1166 23.7738 14.181 23.7339 14.2487Z" fill="white"/>
<path d="M32.077 19.1176L30.976 21.0344L29.8558 22.9866L28.7548 24.9034C28.7148 24.9694 28.6589 24.9984 28.6174 25.0081C28.5998 25.0129 28.5806 25.0161 28.5566 25.0161C28.5247 25.0161 28.4847 25.0097 28.4448 24.9855L28.237 24.8647C28.13 24.8019 28.0932 24.6618 28.1555 24.5522L29.2566 22.6354L30.3768 20.6848L31.4778 18.7681C31.5177 18.7004 31.5752 18.673 31.6168 18.6618C31.6567 18.6505 31.7207 18.6456 31.7878 18.6859L31.9955 18.8067C32.0626 18.8454 32.0898 18.9034 32.101 18.9452C32.1122 18.9871 32.117 19.0499 32.077 19.1176Z" fill="white"/>
<path d="M39.5284 24.2464L38.763 25.58L37.6412 27.5307L36.8981 28.8257C37.0899 28.8611 37.2753 28.874 37.4478 28.8627C37.7706 28.8418 38.0135 28.7387 38.0998 28.5873L38.4386 27.9962L39.5604 26.0456L39.9231 25.4158C40.051 25.1919 39.9247 24.7199 39.5284 24.2464Z" fill="white"/>
</svg>
