<svg width="48" height="48" viewBox="0 0 48 48" fill="none" xmlns="http://www.w3.org/2000/svg">
<path d="M2.5973 30.5768L1.44965 23.8059L47.1745 23.3865L45.8456 29.4983L40.7114 36.4489L31.953 41.0028L22.953 42.0813L16.6711 41.0028L8.57716 37.3477L2.5973 30.5768Z" fill="#FFC774" stroke="black"/>
<path d="M41.2317 34.0241C40.6663 34.6089 40.0542 35.1509 39.4019 35.6719C36.3238 38.1358 32.3211 39.8585 27.8497 40.496C26.5997 40.6766 25.3144 40.766 24 40.766C22.5793 40.766 21.1909 40.6807 19.8459 40.4714C10.283 38.995 2.93638 32.4542 2.30013 24.6247H45.6999C45.4148 28.14 43.7927 31.3796 41.2317 34.0241ZM0 22.3877V23.4567C0 34.2326 10.7662 43 24 43C25.3095 43 26.5965 42.9137 27.8497 42.7491C30.7184 42.3704 33.418 41.5643 35.8534 40.4331C38.4225 39.2411 40.6953 37.7271 42.5589 35.8097H42.5605C44.5482 33.8923 46.0719 31.5538 46.9933 29.05C47.5216 27.6167 47.8534 26.1208 47.9613 24.5693C47.9871 24.2002 48 23.8322 48 23.4567V22.3877H0Z" fill="#282828"/>
<path d="M19.8459 40.4946C10.2829 39.0182 2.93635 32.4542 2.30011 24.6248H7.73796C8.21152 31.3357 12.9713 37.3021 19.8459 40.4946Z" fill="white"/>
<path d="M23.9372 17.4302C23.5838 17.4302 23.2359 17.2659 23.016 16.9579C22.6562 16.4537 22.7765 15.7558 23.2847 15.3988L23.4469 15.2849C23.9657 14.9201 24.2662 14.3875 24.2712 13.824C24.2762 13.2537 23.9936 12.7317 23.4754 12.3538L23.189 12.145C22.0689 11.3283 21.4441 10.108 21.4748 8.79715C21.5058 7.47956 22.1926 6.28197 23.3592 5.51165C23.8776 5.16955 24.5776 5.30872 24.9226 5.82291C25.2676 6.3371 25.1272 7.03136 24.6089 7.37378C24.0635 7.73394 23.7428 8.27178 23.7292 8.84908C23.7159 9.41999 24.0058 9.96422 24.5246 10.3426L24.811 10.5514C25.9121 11.3542 26.5374 12.554 26.5261 13.8432C26.515 15.1337 25.8676 16.3246 24.7504 17.1103L24.5878 17.2244C24.39 17.3634 24.1625 17.4302 23.9372 17.4302Z" fill="#282828"/>
<path d="M18.1359 17.4302C17.7826 17.4302 17.4346 17.2659 17.2149 16.9582C16.8549 16.454 16.975 15.7559 17.4832 15.399L17.6453 15.2851C18.1644 14.9201 18.465 14.3875 18.4698 13.824C18.4748 13.2537 18.1923 12.7315 17.6741 12.3538L17.3877 12.1451C16.2676 11.3283 15.6426 10.108 15.6734 8.79715C15.7043 7.47956 16.3911 6.28197 17.558 5.51165C18.0761 5.16955 18.7762 5.30872 19.1213 5.82291C19.4664 6.3371 19.3259 7.03136 18.8074 7.37378C18.262 7.73394 17.9413 8.27178 17.9278 8.84908C17.9144 9.41999 18.2043 9.96422 18.7233 10.3426L19.0095 10.5514C20.1108 11.3543 20.7359 12.554 20.7248 13.8432C20.7135 15.1339 20.0664 16.3246 18.949 17.1103L18.7866 17.2242C18.5888 17.3634 18.3612 17.4302 18.1359 17.4302Z" fill="#282828"/>
<path d="M29.7066 17.1062C29.3534 17.1062 29.0053 16.9419 28.7856 16.6342C28.4256 16.1301 28.5458 15.432 29.054 15.075L29.216 14.9611C29.7352 14.5961 30.0357 14.0636 30.0407 13.5C30.0455 12.9297 29.763 12.4077 29.2448 12.0298L28.9588 11.8212C27.8384 11.0043 27.2135 9.78405 27.2443 8.47301C27.2752 7.15559 27.9621 5.958 29.1287 5.18767C29.647 4.84541 30.3471 4.98475 30.6921 5.49894C31.0371 6.01312 30.8967 6.70739 30.3783 7.04981C29.8329 7.40996 29.5122 7.9478 29.4987 8.5251C29.4853 9.09602 29.7753 9.6404 30.2941 10.0188L30.5803 10.2275C31.6816 11.0304 32.3069 12.2302 32.2956 13.5193C32.2843 14.8099 31.6371 16.0008 30.5197 16.7863L30.3574 16.9002C30.1596 17.0394 29.932 17.1062 29.7066 17.1062Z" fill="#282828"/>
<path d="M32.8274 36.6953C32.3934 36.6953 31.9798 36.4454 31.7942 36.026C31.5441 35.4602 31.8036 34.8004 32.3738 34.5523C35.4455 33.2154 37.9157 31.2021 39.5176 28.7299C39.8544 28.2101 40.5521 28.0596 41.0758 28.3937C41.5996 28.7276 41.7513 29.4197 41.4147 29.9393C39.572 32.7831 36.759 35.0866 33.2798 36.6007C33.1324 36.665 32.9786 36.6953 32.8274 36.6953Z" fill="#282828"/>
</svg>
