<svg width="292" height="81" viewBox="0 0 292 81" fill="none" xmlns="http://www.w3.org/2000/svg">
  <circle cx="40.5" cy="40.5" r="40.5" fill="#F8F8FA" />
  <path
    d="M61.7676 42.6959C62.3246 41.0729 61.6117 39.1937 60.1755 38.4985C58.7392 37.8033 57.1235 38.5555 56.5665 40.1785L61.7676 42.6959ZM12.7796 40.3901C12.2248 38.7219 10.6101 37.8383 9.17301 38.4166C7.73595 38.9949 7.02076 40.816 7.57559 42.4843L12.7796 40.3901ZM56.5665 40.1785C56.1973 41.2545 55.6946 42.2623 55.0677 43.2033L59.5447 47.1937C60.4524 45.8312 61.2063 44.3319 61.7676 42.6959L56.5665 40.1785ZM52.8653 45.7866C51.272 47.281 49.2951 48.5331 47.0317 49.5094L49.1538 55.5035C51.8548 54.3384 54.3648 52.7815 56.487 50.791L52.8653 45.7866ZM43.7021 50.6875C41.4695 51.3209 39.0916 51.7085 36.6717 51.8458L37.1402 58.2318C39.8895 58.0759 42.62 57.6345 45.2186 56.8972L43.7021 50.6875ZM33.0799 51.8658C30.6387 51.7551 28.2335 51.3915 25.9707 50.7855L24.8818 57.0092C27.5177 57.7151 30.2798 58.1288 33.0529 58.2546L33.0799 51.8658ZM22.5652 49.6425C20.2149 48.6782 18.1733 47.4365 16.5431 45.9677L13.1909 50.9417C15.4132 52.9441 18.0388 54.5011 20.8486 55.654L22.5652 49.6425ZM14.2734 43.3925C13.6342 42.4546 13.1336 41.4544 12.7796 40.3901L7.57559 42.4843C8.14935 44.2094 8.94815 45.7886 9.92239 47.2182L14.2734 43.3925Z"
    fill="#F9A629" />
  <path fill-rule="evenodd" clip-rule="evenodd"
    d="M58.2731 44.4288C54.5117 43.6713 51.0235 46.6103 51.1319 50.4457L51.1355 50.5733C51.1673 51.6976 51.511 52.791 52.1282 53.7314L56.3843 60.2153C57.7359 62.2744 60.0322 63.516 62.4953 63.5194L62.5993 63.5196C66.2139 63.5246 69.2726 60.85 69.7498 57.267C70.0817 54.7743 69.0897 52.2888 67.1325 50.7098L60.8414 45.6341C60.0947 45.0317 59.2137 44.6182 58.2731 44.4288ZM65.166 59.1194C66.7241 57.7569 67.514 56.1112 66.9302 55.4436C66.3464 54.7759 64.61 55.3392 63.0519 56.7016C61.4937 58.0641 60.7039 59.7098 61.2877 60.3775C61.8715 61.0451 63.6079 60.4819 65.166 59.1194Z"
    fill="#F9A629" />
  <path d="M24 26.5V33" stroke="#F9A629" stroke-width="6" stroke-linecap="round" />
  <path d="M44.5 27C36.3613 30.301 39.0799 31.4689 44.5 33.5" stroke="#F9A629" stroke-width="5"
    stroke-linecap="round" />
  <path
    d="M98.0338 24.0909H107.136L116.75 47.5455H117.159L126.772 24.0909H135.875V59H128.716V36.2784H128.426L119.392 58.8295H114.517L105.483 36.1932H105.193V59H98.0338V24.0909ZM147.973 59H140.064L152.115 24.0909H161.626L173.66 59H165.751L157.007 32.0682H156.734L147.973 59ZM147.478 45.2784H166.16V51.0398H147.478V45.2784ZM172.267 30.1761V24.0909H200.937V30.1761H190.25V59H182.954V30.1761H172.267ZM208.126 59.4432C207.001 59.4432 206.035 59.0455 205.228 58.25C204.433 57.4432 204.035 56.4773 204.035 55.3523C204.035 54.2386 204.433 53.2841 205.228 52.4886C206.035 51.6932 207.001 51.2955 208.126 51.2955C209.217 51.2955 210.172 51.6932 210.99 52.4886C211.808 53.2841 212.217 54.2386 212.217 55.3523C212.217 56.1023 212.024 56.7898 211.638 57.4148C211.263 58.0284 210.768 58.5227 210.155 58.8977C209.541 59.2614 208.865 59.4432 208.126 59.4432ZM217.94 59V54.6193L235.361 30.1761H217.906V24.0909H244.633V28.4716L227.196 52.9148H244.667V59H217.94ZM257.711 24.0909V59H250.331V24.0909H257.711ZM263.784 59V24.0909H277.557C280.204 24.0909 282.46 24.5966 284.324 25.608C286.187 26.608 287.608 28 288.585 29.7841C289.574 31.5568 290.068 33.6023 290.068 35.9205C290.068 38.2386 289.568 40.2841 288.568 42.0568C287.568 43.8295 286.119 45.2102 284.221 46.1989C282.335 47.1875 280.051 47.6818 277.369 47.6818H268.591V41.767H276.176C277.596 41.767 278.767 41.5227 279.687 41.0341C280.619 40.5341 281.312 39.8466 281.767 38.9716C282.233 38.0852 282.466 37.0682 282.466 35.9205C282.466 34.7614 282.233 33.75 281.767 32.8864C281.312 32.0114 280.619 31.3352 279.687 30.858C278.755 30.3693 277.574 30.125 276.142 30.125H271.165V59H263.784Z"
    fill="white" />
</svg>