<svg width="122" height="32" viewBox="0 0 122 32" fill="none" xmlns="http://www.w3.org/2000/svg">
<path d="M31 16C31 24.2843 24.2843 31 16 31C7.71573 31 1 24.2843 1 16C1 7.71573 7.71573 1 16 1C24.2843 1 31 7.71573 31 16Z" fill="#F8F8FA" stroke="#FFA927"/>
<path fill-rule="evenodd" clip-rule="evenodd" d="M21.3954 17.0012C21.6276 16.6527 21.8138 16.2794 21.9506 15.8809C22.1568 15.2798 22.7553 15.0012 23.2872 15.2587C23.8192 15.5162 24.0832 16.2122 23.8769 16.8133C23.669 17.4192 23.3898 17.9745 23.0536 18.4792L21.3954 17.0012ZM18.4191 19.3368C19.2575 18.9752 19.9897 18.5115 20.5798 17.958L21.9211 19.8115C21.1351 20.5487 20.2055 21.1253 19.2051 21.5568L18.4191 19.3368ZM14.5821 20.2021C15.4784 20.1513 16.3591 20.0078 17.186 19.7731L17.7476 22.073C16.7852 22.3461 15.7739 22.5096 14.7556 22.5673L14.5821 20.2021ZM10.6188 19.8095C11.4568 20.0339 12.3477 20.1685 13.2518 20.2096L13.2418 22.5758C12.2147 22.5292 11.1918 22.376 10.2155 22.1145L10.6188 19.8095ZM7.12709 18.0251C7.73085 18.5691 8.48701 19.029 9.3575 19.3861L8.72169 21.6126C7.68102 21.1856 6.70861 20.6089 5.88551 19.8673L7.12709 18.0251ZM5.73321 15.9593C5.86431 16.3535 6.04969 16.7239 6.28644 17.0713L4.67497 18.4882C4.31413 17.9587 4.01828 17.3739 3.80578 16.7349C3.60029 16.1171 3.86517 15.4426 4.39742 15.2284C4.92966 15.0142 5.52772 15.3414 5.73321 15.9593Z" fill="#FFA927"/>
<path fill-rule="evenodd" clip-rule="evenodd" d="M22.5827 17.4552C21.1895 17.1747 19.8977 18.2632 19.9378 19.6837L19.9391 19.7309C19.9509 20.1474 20.0782 20.5523 20.3068 20.9006L21.8831 23.302C22.3837 24.0647 23.2342 24.5245 24.1464 24.5258L24.185 24.5259C25.5237 24.5277 26.6566 23.5371 26.8333 22.2101C26.9562 21.2869 26.5888 20.3663 25.8639 19.7815L23.5339 17.9016C23.2573 17.6785 22.931 17.5253 22.5827 17.4552ZM25.1356 22.8962C25.7127 22.3915 26.0052 21.782 25.789 21.5347C25.5728 21.2875 24.9297 21.4961 24.3526 22.0007C23.7755 22.5053 23.483 23.1148 23.6992 23.3621C23.9154 23.6094 24.5585 23.4008 25.1356 22.8962Z" fill="#F9A629"/>
<path fill-rule="evenodd" clip-rule="evenodd" d="M9.88889 9.70361C10.5025 9.70361 11 10.2011 11 10.8147V13.2221C11 13.8358 10.5025 14.3332 9.88889 14.3332C9.27524 14.3332 8.77778 13.8358 8.77778 13.2221V10.8147C8.77778 10.2011 9.27524 9.70361 9.88889 9.70361Z" fill="#FFA927"/>
<path fill-rule="evenodd" clip-rule="evenodd" d="M18.3486 13.7322C18.1691 14.2111 17.6354 14.4538 17.1566 14.2744C16.6658 14.0904 16.1775 13.905 15.7954 13.7132C15.6029 13.6166 15.4008 13.5008 15.2247 13.3592C15.0561 13.2238 14.8384 13.0074 14.7256 12.6894C14.5969 12.3263 14.6502 11.9626 14.8123 11.6616C14.9553 11.3959 15.1716 11.1961 15.371 11.0461C15.7708 10.7453 16.3678 10.4524 17.1335 10.1419C17.6074 9.94966 18.1473 10.178 18.3395 10.6519C18.5317 11.1258 18.3034 11.6657 17.8295 11.8579C17.4922 11.9948 17.218 12.117 16.9984 12.2263C17.223 12.3199 17.4916 12.4223 17.8064 12.5403C18.2853 12.7197 18.528 13.2534 18.3486 13.7322ZM16.3735 11.906C16.3736 11.906 16.3754 11.9075 16.3784 11.9106C16.3749 11.9075 16.3734 11.906 16.3735 11.906Z" fill="#FFA927"/>
<path d="M40.2642 8.45455H44.0568L48.0625 18.2273H48.233L52.2386 8.45455H56.0312V23H53.0483V13.5327H52.9276L49.1634 22.929H47.1321L43.3679 13.4972H43.2472V23H40.2642V8.45455ZM61.0721 23H57.7766L62.7979 8.45455H66.761L71.7752 23H68.4798L64.8363 11.7784H64.7227L61.0721 23ZM60.8661 17.2827H68.6502V19.6832H60.8661V17.2827ZM71.1946 10.9901V8.45455H83.1406V10.9901H78.6875V23H75.6477V10.9901H71.1946ZM86.136 23.1847C85.6673 23.1847 85.2648 23.0189 84.9286 22.6875C84.5972 22.3513 84.4315 21.9489 84.4315 21.4801C84.4315 21.0161 84.5972 20.6184 84.9286 20.2869C85.2648 19.9555 85.6673 19.7898 86.136 19.7898C86.5906 19.7898 86.9883 19.9555 87.3292 20.2869C87.6701 20.6184 87.8406 21.0161 87.8406 21.4801C87.8406 21.7926 87.7601 22.0791 87.5991 22.3395C87.4428 22.5952 87.2369 22.8011 86.9812 22.9574C86.7255 23.1089 86.4438 23.1847 86.136 23.1847ZM90.2251 23V21.1747L97.4837 10.9901H90.2109V8.45455H101.347V10.2798L94.0817 20.4645H101.362V23H90.2251ZM106.797 8.45455V23H103.721V8.45455H106.797ZM109.327 23V8.45455H115.065C116.169 8.45455 117.108 8.66525 117.885 9.08665C118.661 9.50331 119.253 10.0833 119.661 10.8267C120.072 11.5653 120.278 12.4176 120.278 13.3835C120.278 14.3494 120.07 15.2017 119.653 15.9403C119.237 16.679 118.633 17.2543 117.842 17.6662C117.056 18.0781 116.105 18.2841 114.987 18.2841H111.33V15.8196H114.49C115.082 15.8196 115.57 15.7178 115.953 15.5142C116.341 15.3059 116.63 15.0194 116.82 14.6548C117.014 14.2855 117.111 13.8617 117.111 13.3835C117.111 12.9006 117.014 12.4792 116.82 12.1193C116.63 11.7547 116.341 11.473 115.953 11.2741C115.565 11.0705 115.072 10.9688 114.476 10.9688H112.402V23H109.327Z" fill="black"/>
</svg>
