<svg width="42" height="48" viewBox="0 0 42 48" fill="none" xmlns="http://www.w3.org/2000/svg">
<path d="M8.16362 7.6524L11.9512 7.25684L16.8435 9.15553L21.3413 15.7219L29.7845 19.8357L39.1746 23.1584L40.7528 28.6172L37.6754 34.788L28.522 40.7214L18.4217 41.5916L11.32 39.06L5.24401 34.788L1.77203 27.3514V18.649L3.82365 11.0542L8.16362 7.6524Z" fill="#FFC774" stroke="black"/>
<path d="M33.3523 35.8691C32.58 36.4007 31.7446 36.9028 30.8609 37.3627C25.1205 40.3437 16.6216 41.7403 9.98693 36.7151C5.42497 33.2594 3.05772 28.538 2.95041 22.6837C2.86834 18.2049 4.20032 14.6986 4.21294 14.6649C4.21925 14.6501 4.22346 14.6353 4.22978 14.6206C5.04201 12.3105 6.71276 10.243 8.59815 9.1502C8.80226 9.02995 9.01057 8.92236 9.221 8.82742C9.24625 8.81687 9.2715 8.80421 9.29675 8.79366C10.7508 8.15444 12.1964 8.13756 13.5957 8.74092C15.4453 9.54049 16.0324 10.5995 16.9183 12.2029C18.0314 14.2134 19.416 16.7155 23.6539 19.266C26.5451 21.0065 29.5289 21.6837 32.1592 22.2829C36.82 23.344 38.9011 23.979 39.0505 27.8566C39.0505 27.8798 39.0526 27.903 39.0526 27.9262C39.1326 30.3861 36.8789 33.4409 33.3523 35.8691ZM41.9964 27.8313C41.9712 27.0148 41.8723 26.2849 41.7123 25.633C40.6266 21.1816 36.6622 20.2787 32.8115 19.4032C30.3958 18.8525 27.6582 18.2302 25.171 16.7344C21.6086 14.591 20.5333 12.648 19.4938 10.7704C18.5301 9.02784 17.5348 7.22618 14.7614 6.03C12.6151 5.10175 10.3173 5.12285 8.11628 6.08697C7.96267 6.15448 7.81117 6.2262 7.65966 6.30215C7.33982 6.46249 7.02419 6.64392 6.71487 6.84011C6.71066 6.84433 6.70855 6.84644 6.70855 6.84644C4.39601 8.32743 2.45381 10.8042 1.45851 13.6164C1.31542 13.9919 -0.0649514 17.7471 0.00238382 22.6267C0.097074 29.3882 2.93567 35.0737 8.21097 39.0716C11.946 41.8985 16.1481 42.9998 20.2324 42.9998C24.6029 42.9998 28.8366 41.7403 32.216 39.985C33.1881 39.4787 34.1035 38.9323 34.9536 38.3543C39.4208 35.3143 42.1121 31.3797 41.9964 27.8313Z" fill="#282828"/>
<path d="M16.2336 21.206C16.2336 23.7129 14.2066 25.7451 11.7061 25.7451C9.20565 25.7451 7.17865 23.7129 7.17865 21.206C7.17865 18.6991 9.20565 16.6668 11.7061 16.6668C14.2066 16.6668 16.2336 18.6991 16.2336 21.206Z" fill="white"/>
<path d="M11.7061 18.1436C10.0219 18.1436 8.6516 19.5174 8.6516 21.206C8.6516 22.8946 10.0219 24.2684 11.7061 24.2684C13.3903 24.2684 14.7606 22.8946 14.7606 21.206C14.7606 19.5174 13.3903 18.1436 11.7061 18.1436ZM11.7061 27.2219C8.39741 27.2219 5.70569 24.523 5.70569 21.206C5.70569 17.8888 8.39741 15.1901 11.7061 15.1901C15.0148 15.1901 17.7065 17.8888 17.7065 21.206C17.7065 24.523 15.0148 27.2219 11.7061 27.2219Z" fill="#282828"/>
<path d="M27.2671 23.882C29.035 25.6548 29.035 28.5288 27.2671 30.3013C25.4991 32.074 22.6323 32.074 20.8643 30.3013C19.0962 28.5288 19.0962 25.6548 20.8643 23.882C22.6323 22.1095 25.4991 22.1095 27.2671 23.882Z" fill="white"/>
<path d="M24.0657 24.0309C23.2835 24.0309 22.5014 24.3294 21.9059 24.9264C21.3289 25.5047 21.0112 26.2739 21.0112 27.0918C21.0112 27.9097 21.3289 28.6789 21.9059 29.2572C23.0969 30.4512 25.0344 30.4512 26.2254 29.2572C26.8024 28.6789 27.1201 27.9097 27.1201 27.0918C27.1201 26.2739 26.8024 25.5047 26.2254 24.9264C25.6299 24.3294 24.8478 24.0309 24.0657 24.0309ZM24.0657 33.105C22.5292 33.105 20.9926 32.5185 19.8227 31.3457C18.6894 30.2095 18.0652 28.6985 18.0652 27.0918C18.0652 25.4849 18.6894 23.9741 19.8227 22.8379C22.1624 20.4924 25.9691 20.4924 28.3086 22.8379C29.442 23.9741 30.0661 25.4849 30.0661 27.0918C30.0661 28.6985 29.442 30.2095 28.3086 31.3457C27.1387 32.5185 25.6022 33.105 24.0657 33.105Z" fill="#282828"/>
<path d="M28.5944 36.8062C28.0622 36.8062 27.5486 36.5161 27.2862 36.0102C26.911 35.2866 27.1919 34.3948 27.9139 34.0189C29.2713 33.3115 30.4878 32.4368 31.4315 31.4894C32.0064 30.9124 32.9392 30.9122 33.5147 31.4883C34.0902 32.0649 34.0906 32.9999 33.5158 33.5769C32.3614 34.7353 30.8941 35.7944 29.2726 36.6393C29.0554 36.7526 28.8231 36.8062 28.5944 36.8062Z" fill="#282828"/>
<path d="M20.7203 38.8086C17.5032 38.8086 14.5495 37.846 12.0802 35.9751C11.431 35.4836 11.3025 34.5574 11.793 33.9068C12.2832 33.256 13.207 33.1268 13.8559 33.6186C16.8732 35.904 20.2309 36.0321 22.5161 35.7371C23.3243 35.6331 24.0612 36.2044 24.1652 37.0133C24.2691 37.8221 23.6991 38.5624 22.8923 38.6666C22.1573 38.7613 21.432 38.8086 20.7203 38.8086Z" fill="#282828"/>
<path d="M41.7124 25.6331C40.6266 21.1817 36.6622 20.2787 32.8115 19.4032C30.3959 18.8526 27.6583 18.2302 25.1711 16.7345C21.6086 14.5911 20.5334 12.6481 19.4939 10.7705C18.5301 9.02789 17.5348 7.22624 14.7615 6.03006C12.6152 5.10181 10.3173 5.1229 8.11632 6.08702C7.96271 6.15453 7.81121 6.22626 7.6597 6.30221C7.33986 6.46254 7.02423 6.64397 6.7149 6.84017C6.96531 6.6503 14.0187 1.41833 28.5925 9.49835C38.3582 14.9096 41.0285 21.6521 41.7124 25.6331Z" fill="#F8F8FA"/>
</svg>
