<svg width="295" height="295" viewBox="0 0 295 295" fill="none" xmlns="http://www.w3.org/2000/svg">
<path d="M82.4304 199.455V214H79.7741L73.446 204.845H73.3395V214H70.2642V199.455H72.9631L79.2415 208.602H79.3693V199.455H82.4304ZM89.8434 214.213C88.7402 214.213 87.7861 213.979 86.9812 213.51C86.181 213.036 85.5631 212.378 85.1275 211.536C84.6919 210.688 84.4741 209.705 84.4741 208.588C84.4741 207.461 84.6919 206.476 85.1275 205.634C85.5631 204.786 86.181 204.128 86.9812 203.659C87.7861 203.186 88.7402 202.949 89.8434 202.949C90.9466 202.949 91.8983 203.186 92.6985 203.659C93.5034 204.128 94.1237 204.786 94.5593 205.634C94.9949 206.476 95.2127 207.461 95.2127 208.588C95.2127 209.705 94.9949 210.688 94.5593 211.536C94.1237 212.378 93.5034 213.036 92.6985 213.51C91.8983 213.979 90.9466 214.213 89.8434 214.213ZM89.8576 211.869C90.3595 211.869 90.7785 211.727 91.1147 211.443C91.4509 211.154 91.7042 210.761 91.8746 210.264C92.0498 209.767 92.1374 209.201 92.1374 208.567C92.1374 207.932 92.0498 207.366 91.8746 206.869C91.7042 206.372 91.4509 205.979 91.1147 205.69C90.7785 205.402 90.3595 205.257 89.8576 205.257C89.351 205.257 88.9248 205.402 88.5792 205.69C88.2383 205.979 87.9802 206.372 87.805 206.869C87.6346 207.366 87.5494 207.932 87.5494 208.567C87.5494 209.201 87.6346 209.767 87.805 210.264C87.9802 210.761 88.2383 211.154 88.5792 211.443C88.9248 211.727 89.351 211.869 89.8576 211.869ZM104.941 199.455V214H101.866V199.455H104.941ZM107.414 214V203.091H110.298V205.016H110.426C110.653 204.376 111.032 203.872 111.562 203.503C112.092 203.134 112.727 202.949 113.466 202.949C114.214 202.949 114.85 203.136 115.376 203.51C115.902 203.879 116.252 204.381 116.427 205.016H116.541C116.763 204.391 117.166 203.891 117.748 203.517C118.335 203.138 119.029 202.949 119.829 202.949C120.847 202.949 121.673 203.273 122.308 203.922C122.947 204.566 123.267 205.48 123.267 206.663V214H120.248V207.26C120.248 206.654 120.087 206.199 119.765 205.896C119.443 205.593 119.041 205.442 118.558 205.442C118.009 205.442 117.58 205.617 117.272 205.967C116.965 206.313 116.811 206.77 116.811 207.338V214H113.877V207.196C113.877 206.661 113.724 206.235 113.416 205.918C113.113 205.6 112.713 205.442 112.216 205.442C111.879 205.442 111.576 205.527 111.306 205.697C111.041 205.863 110.831 206.098 110.674 206.401C110.518 206.699 110.44 207.049 110.44 207.452V214H107.414ZM128.767 214.206C128.071 214.206 127.451 214.085 126.907 213.844C126.362 213.598 125.931 213.235 125.614 212.757C125.301 212.274 125.145 211.673 125.145 210.953C125.145 210.347 125.257 209.838 125.479 209.426C125.702 209.014 126.005 208.683 126.388 208.432C126.772 208.181 127.207 207.991 127.695 207.864C128.187 207.736 128.703 207.646 129.243 207.594C129.878 207.527 130.389 207.466 130.777 207.409C131.166 207.348 131.447 207.258 131.623 207.139C131.798 207.021 131.885 206.846 131.885 206.614V206.571C131.885 206.121 131.743 205.773 131.459 205.527C131.18 205.281 130.782 205.158 130.266 205.158C129.721 205.158 129.288 205.278 128.966 205.52C128.644 205.757 128.431 206.055 128.327 206.415L125.529 206.188C125.671 205.525 125.95 204.952 126.367 204.469C126.783 203.981 127.321 203.607 127.979 203.347C128.642 203.081 129.409 202.949 130.28 202.949C130.886 202.949 131.466 203.02 132.02 203.162C132.579 203.304 133.074 203.524 133.505 203.822C133.94 204.121 134.283 204.504 134.534 204.973C134.785 205.437 134.911 205.993 134.911 206.642V214H132.042V212.487H131.956C131.781 212.828 131.547 213.129 131.253 213.389C130.96 213.645 130.607 213.846 130.195 213.993C129.783 214.135 129.307 214.206 128.767 214.206ZM129.634 212.118C130.079 212.118 130.472 212.03 130.813 211.855C131.154 211.675 131.421 211.434 131.615 211.131C131.81 210.828 131.907 210.484 131.907 210.101V208.943C131.812 209.005 131.682 209.062 131.516 209.114C131.355 209.161 131.173 209.206 130.969 209.249C130.766 209.286 130.562 209.322 130.358 209.355C130.155 209.384 129.97 209.41 129.804 209.433C129.449 209.485 129.139 209.568 128.874 209.682C128.609 209.795 128.403 209.949 128.256 210.143C128.109 210.333 128.036 210.57 128.036 210.854C128.036 211.266 128.185 211.58 128.483 211.798C128.786 212.011 129.17 212.118 129.634 212.118ZM142.173 218.318C141.193 218.318 140.352 218.183 139.652 217.913C138.956 217.648 138.402 217.286 137.99 216.827C137.578 216.367 137.31 215.851 137.187 215.278L139.985 214.902C140.071 215.12 140.206 215.323 140.39 215.513C140.575 215.702 140.819 215.854 141.122 215.967C141.43 216.086 141.804 216.145 142.244 216.145C142.902 216.145 143.444 215.984 143.87 215.662C144.301 215.345 144.517 214.812 144.517 214.064V212.068H144.389C144.256 212.371 144.057 212.658 143.792 212.928C143.527 213.197 143.186 213.418 142.77 213.588C142.353 213.759 141.856 213.844 141.278 213.844C140.459 213.844 139.713 213.654 139.041 213.276C138.373 212.892 137.841 212.307 137.443 211.521C137.05 210.731 136.853 209.732 136.853 208.524C136.853 207.288 137.055 206.256 137.457 205.428C137.859 204.599 138.395 203.979 139.062 203.567C139.734 203.155 140.471 202.949 141.271 202.949C141.882 202.949 142.393 203.053 142.805 203.261C143.217 203.465 143.548 203.721 143.799 204.028C144.055 204.331 144.252 204.63 144.389 204.923H144.502V203.091H147.507V214.107C147.507 215.035 147.279 215.811 146.825 216.436C146.37 217.061 145.741 217.53 144.936 217.842C144.136 218.16 143.215 218.318 142.173 218.318ZM142.237 211.571C142.725 211.571 143.136 211.45 143.473 211.209C143.814 210.963 144.074 210.612 144.254 210.158C144.439 209.698 144.531 209.149 144.531 208.51C144.531 207.871 144.441 207.317 144.261 206.848C144.081 206.375 143.821 206.008 143.48 205.747C143.139 205.487 142.725 205.357 142.237 205.357C141.74 205.357 141.321 205.491 140.98 205.761C140.639 206.027 140.381 206.396 140.206 206.869C140.03 207.343 139.943 207.89 139.943 208.51C139.943 209.14 140.03 209.684 140.206 210.143C140.386 210.598 140.644 210.951 140.98 211.202C141.321 211.448 141.74 211.571 142.237 211.571ZM154.886 214.213C153.764 214.213 152.798 213.986 151.988 213.531C151.183 213.072 150.563 212.423 150.127 211.585C149.692 210.742 149.474 209.746 149.474 208.595C149.474 207.473 149.692 206.488 150.127 205.641C150.563 204.793 151.176 204.133 151.967 203.659C152.762 203.186 153.695 202.949 154.765 202.949C155.485 202.949 156.155 203.065 156.775 203.297C157.4 203.524 157.945 203.867 158.409 204.327C158.877 204.786 159.242 205.364 159.502 206.06C159.763 206.751 159.893 207.561 159.893 208.489V209.32H150.681V207.445H157.045C157.045 207.009 156.95 206.623 156.761 206.287C156.572 205.951 156.309 205.688 155.973 205.499C155.641 205.304 155.255 205.207 154.815 205.207C154.356 205.207 153.949 205.314 153.593 205.527C153.243 205.735 152.968 206.017 152.77 206.372C152.571 206.723 152.469 207.113 152.464 207.544V209.327C152.464 209.866 152.564 210.333 152.762 210.726C152.966 211.119 153.252 211.422 153.622 211.635C153.991 211.848 154.429 211.955 154.936 211.955C155.272 211.955 155.58 211.907 155.859 211.812C156.138 211.718 156.377 211.576 156.576 211.386C156.775 211.197 156.927 210.965 157.031 210.69L159.829 210.875C159.687 211.547 159.396 212.134 158.956 212.636C158.52 213.134 157.957 213.522 157.265 213.801C156.579 214.076 155.786 214.213 154.886 214.213ZM166.553 214V199.455H176.184V201.99H169.629V205.456H175.545V207.991H169.629V214H166.553ZM182.324 214.213C181.221 214.213 180.267 213.979 179.462 213.51C178.661 213.036 178.044 212.378 177.608 211.536C177.172 210.688 176.955 209.705 176.955 208.588C176.955 207.461 177.172 206.476 177.608 205.634C178.044 204.786 178.661 204.128 179.462 203.659C180.267 203.186 181.221 202.949 182.324 202.949C183.427 202.949 184.379 203.186 185.179 203.659C185.984 204.128 186.604 204.786 187.04 205.634C187.475 206.476 187.693 207.461 187.693 208.588C187.693 209.705 187.475 210.688 187.04 211.536C186.604 212.378 185.984 213.036 185.179 213.51C184.379 213.979 183.427 214.213 182.324 214.213ZM182.338 211.869C182.84 211.869 183.259 211.727 183.595 211.443C183.931 211.154 184.185 210.761 184.355 210.264C184.53 209.767 184.618 209.201 184.618 208.567C184.618 207.932 184.53 207.366 184.355 206.869C184.185 206.372 183.931 205.979 183.595 205.69C183.259 205.402 182.84 205.257 182.338 205.257C181.831 205.257 181.405 205.402 181.06 205.69C180.719 205.979 180.461 206.372 180.286 206.869C180.115 207.366 180.03 207.932 180.03 208.567C180.03 209.201 180.115 209.767 180.286 210.264C180.461 210.761 180.719 211.154 181.06 211.443C181.405 211.727 181.831 211.869 182.338 211.869ZM196.656 209.355V203.091H199.682V214H196.777V212.018H196.663C196.417 212.658 196.008 213.171 195.435 213.56C194.866 213.948 194.173 214.142 193.354 214.142C192.625 214.142 191.983 213.976 191.429 213.645C190.875 213.313 190.442 212.842 190.129 212.232C189.821 211.621 189.665 210.889 189.661 210.037V203.091H192.686V209.497C192.691 210.141 192.864 210.65 193.205 211.024C193.545 211.398 194.002 211.585 194.575 211.585C194.94 211.585 195.281 211.502 195.598 211.337C195.915 211.166 196.171 210.915 196.365 210.584C196.564 210.252 196.661 209.843 196.656 209.355ZM205.127 207.693V214H202.102V203.091H204.985V205.016H205.113C205.355 204.381 205.76 203.879 206.328 203.51C206.896 203.136 207.585 202.949 208.395 202.949C209.152 202.949 209.813 203.115 210.376 203.446C210.94 203.777 211.377 204.251 211.69 204.866C212.002 205.477 212.159 206.206 212.159 207.054V214H209.133V207.594C209.138 206.926 208.967 206.405 208.622 206.031C208.276 205.652 207.8 205.463 207.194 205.463C206.787 205.463 206.427 205.551 206.115 205.726C205.807 205.901 205.565 206.157 205.39 206.493C205.22 206.824 205.132 207.224 205.127 207.693ZM218.563 214.178C217.735 214.178 216.984 213.964 216.312 213.538C215.644 213.107 215.114 212.475 214.721 211.642C214.333 210.804 214.138 209.777 214.138 208.56C214.138 207.31 214.34 206.27 214.742 205.442C215.145 204.608 215.68 203.986 216.347 203.574C217.02 203.157 217.756 202.949 218.556 202.949C219.167 202.949 219.676 203.053 220.083 203.261C220.495 203.465 220.826 203.721 221.077 204.028C221.333 204.331 221.527 204.63 221.66 204.923H221.752V199.455H224.771V214H221.788V212.253H221.66C221.518 212.556 221.317 212.857 221.056 213.155C220.8 213.448 220.467 213.692 220.055 213.886C219.647 214.08 219.15 214.178 218.563 214.178ZM219.522 211.77C220.01 211.77 220.422 211.637 220.758 211.372C221.099 211.102 221.359 210.726 221.539 210.243C221.724 209.76 221.816 209.194 221.816 208.545C221.816 207.897 221.726 207.333 221.546 206.855C221.366 206.377 221.106 206.008 220.765 205.747C220.424 205.487 220.01 205.357 219.522 205.357C219.025 205.357 218.606 205.491 218.265 205.761C217.924 206.031 217.666 206.405 217.491 206.884C217.316 207.362 217.228 207.916 217.228 208.545C217.228 209.18 217.316 209.741 217.491 210.229C217.671 210.712 217.929 211.09 218.265 211.365C218.606 211.635 219.025 211.77 219.522 211.77Z" fill="#8D8D8D"/>
<path d="M149 107C143.858 107 138.831 108.554 134.555 111.466C130.28 114.378 126.947 118.517 124.979 123.359C123.011 128.201 122.496 133.529 123.5 138.67C124.503 143.81 126.979 148.532 130.615 152.238C134.251 155.944 138.884 158.468 143.928 159.491C148.971 160.513 154.199 159.989 158.95 157.983C163.701 155.977 167.761 152.581 170.618 148.223C173.475 143.865 175 138.741 175 133.5C174.992 126.474 172.25 119.738 167.376 114.771C162.502 109.803 155.893 107.008 149 107V107ZM149 152.561C145.301 152.561 141.685 151.443 138.61 149.349C135.534 147.254 133.137 144.277 131.722 140.794C130.306 137.311 129.936 133.479 130.658 129.781C131.379 126.084 133.16 122.687 135.776 120.022C138.391 117.356 141.724 115.54 145.351 114.805C148.979 114.069 152.74 114.447 156.157 115.89C159.574 117.332 162.495 119.775 164.55 122.91C166.605 126.045 167.702 129.73 167.702 133.5C167.696 138.554 165.724 143.399 162.218 146.972C158.712 150.546 153.958 152.556 149 152.561Z" fill="#8D8D8D"/>
<path d="M198.5 93.7776H178.058L174.336 82.9702C173.835 81.519 172.899 80.2608 171.658 79.3702C170.417 78.4796 168.931 78.0008 167.408 78H130.493C128.962 77.9997 127.469 78.4831 126.224 79.3825C124.979 80.2818 124.044 81.5519 123.551 83.0144L119.919 93.7776H99.5001C98.0419 93.7792 96.6439 94.3643 95.6127 95.4044C94.5816 96.4446 94.0016 97.8548 94 99.3257V171.452C94.0016 172.923 94.5816 174.333 95.6127 175.373C96.6439 176.413 98.0419 176.998 99.5001 177H198.5C199.958 176.998 201.356 176.413 202.387 175.373C203.418 174.333 203.998 172.923 204 171.452V99.3257C203.998 97.8548 203.418 96.4446 202.387 95.4044C201.356 94.3643 199.958 93.7792 198.5 93.7776V93.7776ZM196.667 169.602H101.335V101.175H125.171L130.493 85.3975H167.408L172.842 101.175H196.667V169.602Z" fill="#8D8D8D"/>
<line x1="96.9497" y1="80" x2="203" y2="186.05" stroke="#8D8D8D" stroke-width="7" stroke-linecap="round"/>
</svg>
