<svg width="24" height="24" viewBox="0 0 24 24" fill="none" xmlns="http://www.w3.org/2000/svg">
<path d="M2.09998 10.3937C2.09998 4.93049 6.53367 0.5 12 0.5C17.4663 0.5 21.9 4.93049 21.9 10.3937C21.9 14.4964 19.8471 17.7662 17.612 19.9998C16.4936 21.1175 15.3234 21.9824 14.3273 22.5694C13.8294 22.8629 13.3714 23.089 12.982 23.2427C12.6018 23.3928 12.2585 23.4854 12 23.4854C11.7414 23.4854 11.3981 23.3928 11.018 23.2427C10.6285 23.089 10.1706 22.8629 9.67265 22.5694C8.67659 21.9824 7.50638 21.1175 6.38791 19.9998C4.15285 17.7662 2.09998 14.4964 2.09998 10.3937Z" fill="#F38B8B" stroke="#E64040" stroke-linecap="square"/>
<path d="M8.81901 11.019L12.0001 14.2L15.1811 11.019C15.5347 10.6654 15.7334 10.1858 15.7334 9.68567C15.7334 8.64427 14.8892 7.80005 13.8478 7.80005C13.3477 7.80005 12.8681 7.99871 12.5144 8.35233L12.0001 8.86672L11.4857 8.35233C11.1321 7.99871 10.6524 7.80005 10.1523 7.80005C9.11094 7.80005 8.26672 8.64427 8.26672 9.68567C8.26672 10.1858 8.46539 10.6654 8.81901 11.019Z" fill="white" stroke="#E64040" stroke-linejoin="round"/>
</svg>
