<svg width="48" height="48" viewBox="0 0 48 48" fill="none" xmlns="http://www.w3.org/2000/svg">
<circle cx="23.9799" cy="24.0604" r="22.651" fill="#FFC774"/>
<path d="M30.1917 22.4875C29.4991 22.6776 28.7823 22.2701 28.5922 21.5758C28.5229 21.3229 28.5326 21.0652 28.6083 20.8333C28.8966 21.3374 29.4958 21.6032 30.0821 21.4421C30.5235 21.3213 30.8472 20.9895 30.9761 20.5836C31.0309 20.677 31.0744 20.7785 31.1033 20.888C31.2934 21.5823 30.8843 22.2974 30.1917 22.4875Z" fill="white"/>
<path d="M35.1624 21.1247C34.4698 21.3148 33.753 20.9073 33.5629 20.213C33.4936 19.9601 33.5033 19.7024 33.579 19.4705C33.8673 19.9746 34.4681 20.2404 35.0528 20.0793C35.4942 19.9585 35.8179 19.6267 35.9468 19.2208C36.0016 19.3142 36.0451 19.4157 36.0741 19.5252C36.2641 20.2179 35.855 20.9346 35.1624 21.1247Z" fill="white"/>
<path d="M33.6096 25.113C32.917 25.3031 32.2018 24.8955 32.0118 24.2029C31.9425 23.95 31.9522 23.6939 32.0279 23.462C32.3162 23.9629 32.917 24.2271 33.5001 24.0676C33.9398 23.9468 34.2652 23.615 34.3957 23.2107C34.4488 23.3041 34.4923 23.4056 34.5213 23.5135C34.7114 24.2078 34.3038 24.9229 33.6096 25.113Z" fill="white"/>
<path d="M39.4244 23.3477C39.0684 23.9711 38.2743 24.1901 37.6494 23.8342C37.1049 23.5233 36.8698 22.879 37.055 22.3056C37.1662 22.5005 37.3304 22.6696 37.5398 22.7888C38.1648 23.1448 38.9589 22.9257 39.3149 22.3023C39.36 22.2234 39.397 22.1397 39.4228 22.0559C39.6451 22.4425 39.6612 22.9321 39.4244 23.3477Z" fill="white"/>
<path d="M37.0357 27.956C36.343 28.1461 35.6263 27.7386 35.4362 27.0459C35.3669 26.7931 35.3766 26.5369 35.4523 26.3034C35.7406 26.8059 36.3398 27.0717 36.9261 26.9106C37.3659 26.7898 37.6912 26.458 37.8201 26.0553C37.8732 26.1488 37.9167 26.2502 37.9457 26.3582C38.1358 27.0508 37.7283 27.7659 37.0357 27.956Z" fill="white"/>
<path d="M32.065 29.3186C31.3707 29.5086 30.6556 29.1011 30.4655 28.4085C30.3962 28.1556 30.4059 27.8995 30.4816 27.6659C30.7699 28.1685 31.3691 28.4343 31.9538 28.2748C32.3936 28.154 32.7189 27.8222 32.8494 27.4179C32.9025 27.5113 32.946 27.6128 32.975 27.7207C33.1651 28.4133 32.7576 29.1285 32.065 29.3186Z" fill="white"/>
<path d="M35.3573 31.6767C34.663 31.8668 33.9479 31.4593 33.7578 30.765C33.6885 30.5122 33.6982 30.256 33.7739 30.0241C34.0606 30.5266 34.6614 30.7924 35.2461 30.6313C35.6859 30.5105 36.0112 30.1787 36.1417 29.7744C36.1948 29.8679 36.2383 29.9693 36.2673 30.0773C36.4574 30.7715 36.0499 31.4866 35.3573 31.6767Z" fill="white"/>
<path d="M31.8008 18.5104C31.1066 18.7005 30.3914 18.293 30.2013 17.6004C30.1321 17.3459 30.1417 17.0898 30.2174 16.8578C30.5042 17.3604 31.105 17.6262 31.6897 17.4651C32.1294 17.3443 32.4548 17.0125 32.5852 16.6098C32.6384 16.7032 32.6819 16.8047 32.7109 16.9126C32.9009 17.6052 32.4934 18.3204 31.8008 18.5104Z" fill="white"/>
<path d="M24 45.745C12.0097 45.745 2.25503 35.9902 2.25503 24C2.25503 12.0098 12.0097 2.25504 24 2.25504C35.9902 2.25504 45.745 12.0098 45.745 24C45.745 35.9902 35.9902 45.745 24 45.745ZM24 1.99676e-06C10.7663 1.99676e-06 0 10.7663 0 24C0 37.2337 10.7663 48 24 48C37.2337 48 48 37.2337 48 24C48 10.7663 37.2337 1.99676e-06 24 1.99676e-06Z" fill="#282828"/>
<path d="M43.0148 20.1113C41.6754 13.5662 36.9397 8.07083 30.6557 5.76989C30.0709 5.55583 29.4234 5.85623 29.2093 6.44093C28.9951 7.02579 29.2956 7.6733 29.8803 7.88737C35.4354 9.92157 39.6218 14.7786 40.8055 20.5634C40.9147 21.0972 41.3844 21.4651 41.909 21.4651C41.9839 21.4651 42.0599 21.4575 42.1361 21.4419C42.7463 21.3171 43.1396 20.7214 43.0148 20.1113Z" fill="#282828"/>
<path d="M23.9725 4.59034C19.5805 4.59034 15.4364 6.01971 11.988 8.72381C11.498 9.10798 11.4122 9.8167 11.7965 10.3067C12.0189 10.5903 12.3499 10.7385 12.6845 10.7385C12.9279 10.7385 13.1732 10.6601 13.3795 10.4982C16.427 8.10851 20.09 6.84537 23.9725 6.84537C24.5952 6.84537 25.1 6.34057 25.1 5.71785C25.1 5.09514 24.5952 4.59034 23.9725 4.59034Z" fill="#282828"/>
<path d="M30.1482 37.9135C29.4185 39.194 27.79 39.645 26.5208 38.9218C26.5095 38.9154 26.4982 38.9105 26.487 38.9041L26.4612 38.8896C25.2145 38.2147 24.4317 37.3981 24.5573 36.9052C24.6958 36.3591 24.4091 35.7938 23.8856 35.5828C23.3621 35.3718 22.7629 35.5795 22.4843 36.0708L20.9992 38.6786C20.648 39.2923 20.0762 39.7385 19.39 39.9318C18.7055 40.125 17.9951 40.0429 17.3895 39.6982L17.3525 39.6773C16.7452 39.331 16.3103 38.7591 16.1267 38.0681C15.9431 37.3739 16.0365 36.6507 16.3892 36.0322L17.0094 34.9417C17.2526 34.5165 17.1914 33.9817 16.8612 33.6209C16.6421 33.3825 16.3393 33.2552 16.03 33.2552C15.8706 33.2552 15.7095 33.2907 15.5581 33.3599C14.1841 33.993 13.6413 34.175 12.3221 33.426C11.0835 32.7173 10.6582 31.121 11.3734 29.8663L11.9678 28.8225C12.0773 28.6292 12.124 28.4182 12.1143 28.212C12.0966 27.8399 11.8953 27.484 11.5474 27.2859L6.78763 24.575L7.34655 23.594L12.1047 26.3049C12.364 26.4531 12.6717 26.4918 12.9616 26.4128C13.2499 26.3339 13.4947 26.1438 13.6429 25.8845L14.2308 24.8504C14.9444 23.5989 16.5374 23.1511 17.7761 23.8518C19.3095 24.7328 19.4851 25.353 19.3095 26.4998C19.229 27.0378 19.5415 27.5565 20.0553 27.7352C20.5675 27.9124 21.1361 27.6998 21.4051 27.2279L22.1009 26.0053C22.4553 25.3836 23.0319 24.9213 23.7262 24.7296C24.4204 24.5395 25.142 24.6442 25.7621 24.9664H25.7637C27.0233 25.7718 27.4598 27.3229 26.7366 28.5905L25.1613 31.365C24.8907 31.8386 24.9986 32.4431 25.419 32.7926C25.8378 33.1422 26.4483 33.1423 26.8655 32.7912C27.3084 32.4191 28.3747 32.6551 29.5812 33.3914L29.5925 33.3981C29.6102 33.4094 29.6263 33.4194 29.644 33.429L29.6456 33.4307C29.6472 33.4307 29.6472 33.4324 29.6488 33.4324C30.5025 33.9205 30.9809 34.8177 30.9809 35.7422C30.9809 36.1916 30.8682 36.6475 30.6298 37.0663L30.509 37.2773L30.1482 37.9135ZM33.0636 34.4504C32.7221 33.1876 31.9135 32.1374 30.7876 31.4867L30.7554 31.4657C29.8792 30.9326 29.048 30.5911 28.2862 30.4429L28.6969 29.7221C30.0354 27.3704 29.2172 24.3221 26.8735 23.0335H26.8719C26.8719 23.0335 26.8703 23.0327 26.8703 23.0311C26.8671 23.0295 26.8623 23.0275 26.859 23.0259C25.7186 22.3832 24.3946 22.2204 23.127 22.5714C22.328 22.7921 21.6113 23.198 21.0282 23.7521C20.5868 23.0627 19.8845 22.4617 18.8923 21.8933C18.8891 21.8916 18.8859 21.8899 18.8827 21.8883C18.8794 21.8867 18.8778 21.8834 18.8746 21.8818L18.8521 21.8689C18.8279 21.8561 18.8021 21.8432 18.7764 21.8303C16.4714 20.6077 13.5769 21.4437 12.2722 23.7342L12.2416 23.7873L7.48346 21.0765C7.22252 20.9283 6.91487 20.8896 6.62655 20.9701C6.33823 21.0491 6.0934 21.2391 5.94521 21.4985L4.27004 24.4381C4.00588 24.902 4.10736 25.4738 4.48266 25.8217C4.54387 25.8797 4.61474 25.9312 4.69206 25.9747L9.45018 28.6872L9.41474 28.75C8.10199 31.0534 8.86709 33.9833 11.1189 35.3331C11.1253 35.3379 11.1334 35.3428 11.1398 35.3476C11.1447 35.3492 11.1479 35.3887 11.1527 35.3903C11.1576 35.3935 11.1624 35.4362 11.1672 35.4362H11.1688C11.1704 35.4362 11.1721 35.4032 11.1737 35.4032C11.1753 35.4048 11.1769 35.3866 11.1785 35.3883C11.1801 35.39 11.1833 35.3808 11.1866 35.3824C11.193 35.3856 11.1994 35.3859 11.2043 35.3892C12.2625 35.99 13.1259 36.1987 13.9248 36.1713C13.7251 36.9767 13.7283 37.8228 13.9474 38.6475C14.2856 39.9264 15.099 40.989 16.2378 41.6366L16.2733 41.6572C17.011 42.0776 17.8276 42.29 18.6572 42.29C19.1049 42.29 19.5576 42.2288 20.0021 42.103C21.2633 41.7472 22.3119 40.9272 22.9578 39.7948L23.2526 39.2778C23.7245 39.7997 24.4091 40.3425 25.3868 40.8724L25.4158 40.8885C27.0346 41.8034 28.9611 41.6939 30.4413 40.7677L30.4445 40.7645C31.113 40.3473 31.6896 39.7626 32.1068 39.0297L32.5884 38.1825C33.2376 37.0437 33.4067 35.7181 33.0636 34.4504Z" fill="#282828"/>
<path d="M23.1326 31.9183L15.0694 27.3248C14.5285 27.0165 13.84 27.2051 13.5318 27.7463C13.2234 28.2874 13.4121 28.9758 13.9534 29.2841L22.0164 33.8776C22.1926 33.978 22.3843 34.0256 22.5735 34.0256C22.9654 34.0256 23.3464 33.8211 23.5542 33.4561C23.8625 32.915 23.6737 32.2266 23.1326 31.9183Z" fill="#282828"/>
<path d="M28.7621 35.1256L27.0691 34.1611C26.528 33.8529 25.8396 34.0414 25.5313 34.5824C25.223 35.1236 25.4118 35.8121 25.9528 36.1204L27.6457 37.0849C27.8219 37.1852 28.0138 37.2329 28.2029 37.2329C28.5949 37.2329 28.9757 37.0283 29.1836 36.6634C29.4919 36.1223 29.3032 35.4339 28.7621 35.1256Z" fill="#282828"/>
<path d="M21.6798 11.2647C21.299 11.2647 20.9158 11.3158 20.5386 11.4192C18.2568 12.0448 16.9093 14.4102 17.5349 16.6919C17.8379 17.7974 18.5532 18.7186 19.549 19.2859C20.5449 19.8533 21.7022 19.999 22.8075 19.6958C25.0893 19.0702 26.4368 16.705 25.8114 14.4231C25.5084 13.3178 24.7931 12.3966 23.7971 11.8291C23.1411 11.4554 22.415 11.2647 21.6798 11.2647ZM21.6629 22.1064C20.5413 22.1064 19.4336 21.8155 18.4327 21.2453C16.9135 20.3797 15.8222 18.9744 15.3601 17.2882C14.4057 13.8071 16.4615 10.1987 19.9425 9.24454C21.6288 8.78242 23.3943 9.00438 24.9134 9.86983C26.4326 10.7353 27.5239 12.1406 27.9862 13.8269C28.9404 17.3081 26.8846 20.9163 23.4036 21.8706C22.8283 22.0283 22.2436 22.1064 21.6629 22.1064Z" fill="#282828"/>
<path d="M22.8287 14.4308C23.107 13.8961 22.916 13.2328 22.3875 12.9319C21.8593 12.6307 21.1912 12.8046 20.8731 13.3169C20.3383 13.0384 19.675 13.2294 19.374 13.7579C19.0729 14.2862 19.2469 14.9542 19.7591 15.2723C19.4808 15.8071 19.6718 16.4704 20.2001 16.7714C20.3763 16.8718 20.568 16.9194 20.7573 16.9194C21.1356 16.9194 21.5022 16.7271 21.7144 16.3855C21.8798 16.4718 22.0573 16.5148 22.233 16.5148C22.6249 16.5148 23.0059 16.3103 23.2137 15.9453C23.5149 15.4169 23.3409 14.749 22.8287 14.4308Z" fill="#282828"/>
<path d="M31.0313 20.0488C30.9549 19.3346 30.3145 18.8176 29.6005 18.8937C28.8846 18.9699 28.3676 19.6104 28.4438 20.3244C28.4551 20.4355 28.4818 20.5428 28.5192 20.6435C28.7228 21.1874 29.2715 21.546 29.8761 21.4812C30.3311 21.4329 30.704 21.1575 30.8963 20.7775C31.0084 20.5607 31.059 20.3096 31.0313 20.0488Z" fill="#282828"/>
<path d="M35.9629 18.4801C35.7729 17.7874 35.0577 17.3799 34.3651 17.57C33.6709 17.7601 33.2633 18.4752 33.4534 19.1678C33.4824 19.2758 33.5259 19.3772 33.5791 19.4707C33.8674 19.9748 34.4682 20.2406 35.0529 20.0795C35.4942 19.9587 35.818 19.6269 35.9468 19.221C36.0225 18.9891 36.0322 18.7329 35.9629 18.4801Z" fill="#282828"/>
<path d="M34.4118 22.4698C34.2218 21.7756 33.505 21.3681 32.8124 21.5581C32.1197 21.7482 31.7106 22.4634 31.9007 23.1576C31.9297 23.2671 31.9732 23.3686 32.0279 23.462C32.3163 23.963 32.9171 24.2271 33.5002 24.0677C33.9399 23.9469 34.2653 23.615 34.3957 23.2108C34.4714 22.9788 34.4811 22.7227 34.4118 22.4698Z" fill="#282828"/>
<path d="M38.8285 20.5273C38.2035 20.1713 37.4094 20.3888 37.0534 21.0137C36.8166 21.4293 36.8328 21.919 37.055 22.3055C37.1662 22.5004 37.3305 22.6696 37.5399 22.7888C38.1648 23.1447 38.9589 22.9257 39.3149 22.3023C39.36 22.2234 39.397 22.1396 39.4228 22.0559C39.6081 21.4824 39.3729 20.8381 38.8285 20.5273Z" fill="#282828"/>
<path d="M37.8362 25.3127C37.6462 24.6185 36.931 24.211 36.2368 24.401C35.5442 24.5911 35.1366 25.3079 35.3267 26.0005C35.3557 26.1084 35.3992 26.2099 35.4523 26.3033C35.7407 26.8059 36.3399 27.0716 36.9262 26.9106C37.3659 26.7898 37.6913 26.458 37.8201 26.0553C37.8958 25.8217 37.9055 25.5656 37.8362 25.3127Z" fill="#282828"/>
<path d="M32.8655 26.6754C32.6754 25.9812 31.9602 25.5737 31.266 25.7637C30.5734 25.9538 30.1659 26.6706 30.3559 27.3632C30.3866 27.4711 30.4284 27.5726 30.4816 27.666C30.7699 28.1686 31.3691 28.4343 31.9538 28.2749C32.3935 28.1541 32.7189 27.8223 32.8494 27.418C32.9251 27.1844 32.9347 26.9283 32.8655 26.6754Z" fill="#282828"/>
<path d="M36.1643 29.0318C35.9742 28.3392 35.2639 27.9317 34.5712 28.1217C33.8786 28.3118 33.484 29.027 33.6741 29.7212C33.703 29.8291 33.6644 29.9306 33.8255 30.0224V30.024C33.9865 30.5266 34.6872 30.7923 35.2719 30.6313C35.7116 30.5105 36.0112 30.1787 36.1417 29.7744C36.2174 29.5424 36.2335 29.2847 36.1643 29.0318Z" fill="#282828"/>
<path d="M32.6014 15.8674C32.4113 15.1732 31.6961 14.7657 31.0019 14.9557C30.3093 15.1458 29.9018 15.861 30.0918 16.5552C30.1208 16.6631 30.1643 16.7646 30.2175 16.858C30.5042 17.3606 31.105 17.6263 31.6897 17.4653C32.1294 17.3445 32.4548 17.0126 32.5853 16.61C32.661 16.3764 32.6706 16.1203 32.6014 15.8674Z" fill="#282828"/>
<path d="M30.4413 40.7677C27.658 43.3191 22.2652 45.4066 16.9127 42.765C10.5503 39.6241 7.97314 35.8388 6.28186 32.3757C5.02065 29.7937 4.60991 27.0506 4.48267 25.8216C4.54387 25.8796 4.61475 25.9312 4.69206 25.9747L9.45018 28.6872L9.41475 28.75C8.102 31.0533 8.8671 33.9833 11.1189 35.3331C11.1254 35.3379 11.1334 35.3427 11.1398 35.3476C11.1447 35.3492 11.1479 35.3886 11.1527 35.3902C11.1576 35.3935 11.1624 35.4361 11.1672 35.4361H11.1688C11.1705 35.4361 11.1721 35.4031 11.1737 35.4031C11.1753 35.4047 11.1769 35.3865 11.1785 35.3881C11.1801 35.3898 11.1833 35.3807 11.1866 35.3823C11.193 35.3856 11.1994 35.3859 11.2043 35.3891C12.2625 35.9899 13.1259 36.1987 13.9248 36.1713C13.7251 36.9767 13.7283 37.8228 13.9474 38.6475C14.2856 39.9264 15.099 40.9888 16.2378 41.6364L16.2733 41.6571C17.011 42.0775 17.8276 42.29 18.6572 42.29C19.1049 42.29 19.5576 42.2286 20.0021 42.103C21.2633 41.747 22.3119 40.9272 22.9578 39.7948L23.2526 39.2778C23.7245 39.7996 24.4091 40.3425 25.3868 40.8724L25.4158 40.8885C27.0346 41.8034 28.9611 41.6939 30.4413 40.7677Z" fill="white"/>
</svg>
