<svg width="295" height="295" viewBox="0 0 295 295" fill="none" xmlns="http://www.w3.org/2000/svg">
<path d="M31.1548 220.638C31.098 220.065 30.8542 219.62 30.4233 219.303C29.9924 218.985 29.4077 218.827 28.669 218.827C28.1671 218.827 27.7434 218.898 27.3977 219.04C27.0521 219.177 26.7869 219.369 26.6023 219.615C26.4223 219.861 26.3324 220.141 26.3324 220.453C26.3229 220.714 26.3774 220.941 26.4957 221.135C26.6188 221.329 26.7869 221.497 27 221.639C27.2131 221.777 27.4593 221.897 27.7386 222.001C28.018 222.101 28.3163 222.186 28.6335 222.257L29.9403 222.57C30.5748 222.712 31.1572 222.901 31.6875 223.138C32.2178 223.375 32.6771 223.666 33.0653 224.011C33.4536 224.357 33.7543 224.764 33.9673 225.233C34.1851 225.702 34.2964 226.239 34.3011 226.845C34.2964 227.735 34.0691 228.507 33.6193 229.161C33.1742 229.809 32.5303 230.313 31.6875 230.673C30.8494 231.028 29.8385 231.206 28.6548 231.206C27.4806 231.206 26.4579 231.026 25.5866 230.666C24.7202 230.306 24.0431 229.774 23.5554 229.068C23.0724 228.358 22.8191 227.48 22.7955 226.433H25.7713C25.8045 226.921 25.9441 227.328 26.1903 227.655C26.4413 227.977 26.7751 228.221 27.1918 228.386C27.6132 228.547 28.089 228.628 28.6193 228.628C29.1402 228.628 29.5923 228.552 29.9759 228.401C30.3641 228.249 30.6648 228.038 30.8778 227.768C31.0909 227.499 31.1974 227.188 31.1974 226.838C31.1974 226.511 31.1004 226.237 30.9062 226.014C30.7169 225.792 30.4375 225.602 30.0682 225.446C29.7036 225.29 29.2562 225.148 28.7259 225.02L27.142 224.622C25.9157 224.324 24.9474 223.857 24.2372 223.223C23.527 222.589 23.1742 221.734 23.179 220.659C23.1742 219.778 23.4086 219.009 23.8821 218.351C24.3603 217.693 25.0161 217.179 25.8494 216.81C26.6828 216.44 27.6297 216.256 28.6903 216.256C29.7699 216.256 30.7121 216.44 31.517 216.81C32.3267 217.179 32.9564 217.693 33.4062 218.351C33.8561 219.009 34.0881 219.771 34.1023 220.638H31.1548ZM41.2418 231.213C40.1386 231.213 39.1845 230.979 38.3796 230.51C37.5794 230.036 36.9615 229.378 36.5259 228.536C36.0903 227.688 35.8725 226.705 35.8725 225.588C35.8725 224.461 36.0903 223.476 36.5259 222.634C36.9615 221.786 37.5794 221.128 38.3796 220.659C39.1845 220.186 40.1386 219.949 41.2418 219.949C42.3451 219.949 43.2968 220.186 44.0969 220.659C44.9019 221.128 45.5221 221.786 45.9577 222.634C46.3933 223.476 46.6112 224.461 46.6112 225.588C46.6112 226.705 46.3933 227.688 45.9577 228.536C45.5221 229.378 44.9019 230.036 44.0969 230.51C43.2968 230.979 42.3451 231.213 41.2418 231.213ZM41.256 228.869C41.7579 228.869 42.177 228.727 42.5131 228.443C42.8493 228.154 43.1026 227.761 43.2731 227.264C43.4483 226.767 43.5359 226.201 43.5359 225.567C43.5359 224.932 43.4483 224.366 43.2731 223.869C43.1026 223.372 42.8493 222.979 42.5131 222.69C42.177 222.402 41.7579 222.257 41.256 222.257C40.7494 222.257 40.3233 222.402 39.9776 222.69C39.6367 222.979 39.3787 223.372 39.2035 223.869C39.033 224.366 38.9478 224.932 38.9478 225.567C38.9478 226.201 39.033 226.767 39.2035 227.264C39.3787 227.761 39.6367 228.154 39.9776 228.443C40.3233 228.727 40.7494 228.869 41.256 228.869ZM48.5785 231V220.091H51.462V222.016H51.5898C51.8171 221.376 52.1959 220.872 52.7262 220.503C53.2565 220.134 53.891 219.949 54.6296 219.949C55.3777 219.949 56.0146 220.136 56.5401 220.51C57.0657 220.879 57.4161 221.381 57.5913 222.016H57.7049C57.9274 221.391 58.3299 220.891 58.9123 220.517C59.4994 220.138 60.1931 219.949 60.9933 219.949C62.0112 219.949 62.8375 220.273 63.4719 220.922C64.1112 221.566 64.4308 222.48 64.4308 223.663V231H61.4123V224.26C61.4123 223.654 61.2513 223.199 60.9293 222.896C60.6074 222.593 60.2049 222.442 59.7219 222.442C59.1727 222.442 58.7442 222.617 58.4364 222.967C58.1287 223.313 57.9748 223.77 57.9748 224.338V231H55.0415V224.196C55.0415 223.661 54.8877 223.235 54.5799 222.918C54.2769 222.6 53.8768 222.442 53.3796 222.442C53.0434 222.442 52.7404 222.527 52.4705 222.697C52.2054 222.863 51.9947 223.098 51.8384 223.401C51.6822 223.699 51.604 224.049 51.604 224.452V231H48.5785ZM71.7923 231.213C70.6701 231.213 69.7042 230.986 68.8945 230.531C68.0896 230.072 67.4693 229.423 67.0337 228.585C66.5981 227.742 66.3803 226.746 66.3803 225.595C66.3803 224.473 66.5981 223.488 67.0337 222.641C67.4693 221.793 68.0825 221.133 68.8732 220.659C69.6687 220.186 70.6014 219.949 71.6715 219.949C72.3912 219.949 73.0612 220.065 73.6815 220.297C74.3065 220.524 74.851 220.867 75.315 221.327C75.7837 221.786 76.1483 222.364 76.4087 223.06C76.6692 223.751 76.7994 224.561 76.7994 225.489V226.32H67.5877V224.445H73.9513C73.9513 224.009 73.8567 223.623 73.6673 223.287C73.4779 222.951 73.2151 222.688 72.8789 222.499C72.5475 222.304 72.1616 222.207 71.7212 222.207C71.262 222.207 70.8548 222.314 70.4996 222.527C70.1493 222.735 69.8746 223.017 69.6758 223.372C69.4769 223.723 69.3751 224.113 69.3704 224.544V226.327C69.3704 226.866 69.4698 227.333 69.6687 227.726C69.8723 228.119 70.1587 228.422 70.5281 228.635C70.8974 228.848 71.3353 228.955 71.842 228.955C72.1781 228.955 72.4859 228.907 72.7653 228.812C73.0446 228.718 73.2837 228.576 73.4826 228.386C73.6815 228.197 73.833 227.965 73.9371 227.69L76.7354 227.875C76.5934 228.547 76.3022 229.134 75.8619 229.636C75.4263 230.134 74.8628 230.522 74.1715 230.801C73.485 231.076 72.6919 231.213 71.7923 231.213ZM84.5763 220.091V222.364H78.0067V220.091H84.5763ZM79.4982 217.477H82.5238V227.648C82.5238 227.927 82.5664 228.145 82.6516 228.301C82.7369 228.453 82.8552 228.559 83.0067 228.621C83.163 228.682 83.3429 228.713 83.5465 228.713C83.6886 228.713 83.8306 228.701 83.9727 228.678C84.1147 228.649 84.2236 228.628 84.2994 228.614L84.7752 230.865C84.6237 230.912 84.4106 230.967 84.136 231.028C83.8614 231.095 83.5276 231.135 83.1346 231.149C82.4054 231.178 81.7662 231.08 81.217 230.858C80.6725 230.635 80.2487 230.29 79.9457 229.821C79.6426 229.352 79.4935 228.76 79.4982 228.045V217.477ZM89.8072 224.693V231H86.7816V216.455H89.7219V222.016H89.8498C90.096 221.372 90.4937 220.867 91.043 220.503C91.5922 220.134 92.2811 219.949 93.1097 219.949C93.8673 219.949 94.5278 220.115 95.0913 220.446C95.6594 220.773 96.0998 221.244 96.4123 221.859C96.7295 222.47 96.8858 223.202 96.881 224.054V231H93.8555V224.594C93.8602 223.921 93.6897 223.398 93.3441 223.024C93.0032 222.65 92.525 222.463 91.9094 222.463C91.4975 222.463 91.1329 222.551 90.8157 222.726C90.5032 222.901 90.257 223.157 90.0771 223.493C89.9019 223.824 89.8119 224.224 89.8072 224.693ZM99.2621 231V220.091H102.288V231H99.2621ZM100.782 218.685C100.332 218.685 99.9463 218.536 99.6243 218.237C99.3071 217.934 99.1484 217.572 99.1484 217.151C99.1484 216.734 99.3071 216.376 99.6243 216.078C99.9463 215.775 100.332 215.624 100.782 215.624C101.232 215.624 101.615 215.775 101.933 216.078C102.254 216.376 102.415 216.734 102.415 217.151C102.415 217.572 102.254 217.934 101.933 218.237C101.615 218.536 101.232 218.685 100.782 218.685ZM107.737 224.693V231H104.711V220.091H107.595V222.016H107.723C107.964 221.381 108.369 220.879 108.937 220.51C109.505 220.136 110.194 219.949 111.004 219.949C111.761 219.949 112.422 220.115 112.985 220.446C113.549 220.777 113.987 221.251 114.299 221.866C114.612 222.477 114.768 223.206 114.768 224.054V231H111.743V224.594C111.747 223.926 111.577 223.405 111.231 223.031C110.886 222.652 110.41 222.463 109.804 222.463C109.396 222.463 109.037 222.551 108.724 222.726C108.416 222.901 108.175 223.157 108 223.493C107.829 223.824 107.742 224.224 107.737 224.693ZM122.067 235.318C121.087 235.318 120.247 235.183 119.546 234.913C118.85 234.648 118.296 234.286 117.884 233.827C117.472 233.367 117.205 232.851 117.082 232.278L119.88 231.902C119.965 232.12 120.1 232.323 120.285 232.513C120.469 232.702 120.713 232.854 121.016 232.967C121.324 233.086 121.698 233.145 122.138 233.145C122.797 233.145 123.339 232.984 123.765 232.662C124.196 232.345 124.411 231.812 124.411 231.064V229.068H124.283C124.151 229.371 123.952 229.658 123.687 229.928C123.422 230.197 123.081 230.418 122.664 230.588C122.247 230.759 121.75 230.844 121.173 230.844C120.353 230.844 119.608 230.654 118.935 230.276C118.268 229.892 117.735 229.307 117.337 228.521C116.944 227.731 116.748 226.732 116.748 225.524C116.748 224.288 116.949 223.256 117.352 222.428C117.754 221.599 118.289 220.979 118.957 220.567C119.629 220.155 120.365 219.949 121.165 219.949C121.776 219.949 122.288 220.053 122.7 220.261C123.112 220.465 123.443 220.721 123.694 221.028C123.95 221.331 124.146 221.63 124.283 221.923H124.397V220.091H127.401V231.107C127.401 232.035 127.174 232.811 126.719 233.436C126.265 234.061 125.635 234.53 124.83 234.842C124.03 235.16 123.109 235.318 122.067 235.318ZM122.131 228.571C122.619 228.571 123.031 228.45 123.367 228.209C123.708 227.963 123.969 227.612 124.148 227.158C124.333 226.698 124.425 226.149 124.425 225.51C124.425 224.871 124.335 224.317 124.156 223.848C123.976 223.375 123.715 223.008 123.374 222.747C123.033 222.487 122.619 222.357 122.131 222.357C121.634 222.357 121.215 222.491 120.874 222.761C120.533 223.027 120.275 223.396 120.1 223.869C119.925 224.343 119.837 224.89 119.837 225.51C119.837 226.14 119.925 226.684 120.1 227.143C120.28 227.598 120.538 227.951 120.874 228.202C121.215 228.448 121.634 228.571 122.131 228.571ZM137.769 231L133.607 216.455H136.966L139.374 226.561H139.495L142.151 216.455H145.027L147.676 226.582H147.804L150.212 216.455H153.571L149.409 231H146.412L143.642 221.49H143.529L140.766 231H137.769ZM158.96 231.213C157.838 231.213 156.872 230.986 156.062 230.531C155.258 230.072 154.637 229.423 154.202 228.585C153.766 227.742 153.548 226.746 153.548 225.595C153.548 224.473 153.766 223.488 154.202 222.641C154.637 221.793 155.25 221.133 156.041 220.659C156.837 220.186 157.769 219.949 158.839 219.949C159.559 219.949 160.229 220.065 160.849 220.297C161.474 220.524 162.019 220.867 162.483 221.327C162.952 221.786 163.316 222.364 163.577 223.06C163.837 223.751 163.967 224.561 163.967 225.489V226.32H154.756V224.445H161.119C161.119 224.009 161.025 223.623 160.835 223.287C160.646 222.951 160.383 222.688 160.047 222.499C159.715 222.304 159.33 222.207 158.889 222.207C158.43 222.207 158.023 222.314 157.668 222.527C157.317 222.735 157.043 223.017 156.844 223.372C156.645 223.723 156.543 224.113 156.538 224.544V226.327C156.538 226.866 156.638 227.333 156.837 227.726C157.04 228.119 157.327 228.422 157.696 228.635C158.065 228.848 158.503 228.955 159.01 228.955C159.346 228.955 159.654 228.907 159.933 228.812C160.213 228.718 160.452 228.576 160.651 228.386C160.849 228.197 161.001 227.965 161.105 227.69L163.903 227.875C163.761 228.547 163.47 229.134 163.03 229.636C162.594 230.134 162.031 230.522 161.339 230.801C160.653 231.076 159.86 231.213 158.96 231.213ZM168.967 224.693V231H165.942V220.091H168.825V222.016H168.953C169.195 221.381 169.599 220.879 170.168 220.51C170.736 220.136 171.425 219.949 172.234 219.949C172.992 219.949 173.652 220.115 174.216 220.446C174.779 220.777 175.217 221.251 175.53 221.866C175.842 222.477 175.999 223.206 175.999 224.054V231H172.973V224.594C172.978 223.926 172.807 223.405 172.462 223.031C172.116 222.652 171.64 222.463 171.034 222.463C170.627 222.463 170.267 222.551 169.955 222.726C169.647 222.901 169.405 223.157 169.23 223.493C169.06 223.824 168.972 224.224 168.967 224.693ZM184.186 220.091V222.364H177.616V220.091H184.186ZM179.108 217.477H182.133V227.648C182.133 227.927 182.176 228.145 182.261 228.301C182.346 228.453 182.465 228.559 182.616 228.621C182.772 228.682 182.952 228.713 183.156 228.713C183.298 228.713 183.44 228.701 183.582 228.678C183.724 228.649 183.833 228.628 183.909 228.614L184.385 230.865C184.233 230.912 184.02 230.967 183.745 231.028C183.471 231.095 183.137 231.135 182.744 231.149C182.015 231.178 181.376 231.08 180.826 230.858C180.282 230.635 179.858 230.29 179.555 229.821C179.252 229.352 179.103 228.76 179.108 228.045V217.477ZM194.116 231L189.955 216.455H193.314L195.722 226.561H195.842L198.499 216.455H201.375L204.024 226.582H204.152L206.56 216.455H209.919L205.757 231H202.76L199.99 221.49H199.876L197.114 231H194.116ZM210.825 231V220.091H213.758V221.994H213.871C214.07 221.317 214.404 220.806 214.873 220.46C215.342 220.11 215.881 219.935 216.492 219.935C216.644 219.935 216.807 219.944 216.982 219.963C217.157 219.982 217.311 220.008 217.444 220.041V222.726C217.302 222.683 217.105 222.645 216.854 222.612C216.603 222.579 216.374 222.562 216.165 222.562C215.72 222.562 215.323 222.66 214.972 222.854C214.627 223.043 214.352 223.308 214.148 223.649C213.95 223.99 213.85 224.383 213.85 224.828V231H210.825ZM223.429 231.213C222.326 231.213 221.372 230.979 220.567 230.51C219.767 230.036 219.149 229.378 218.713 228.536C218.278 227.688 218.06 226.705 218.06 225.588C218.06 224.461 218.278 223.476 218.713 222.634C219.149 221.786 219.767 221.128 220.567 220.659C221.372 220.186 222.326 219.949 223.429 219.949C224.533 219.949 225.484 220.186 226.284 220.659C227.089 221.128 227.71 221.786 228.145 222.634C228.581 223.476 228.799 224.461 228.799 225.588C228.799 226.705 228.581 227.688 228.145 228.536C227.71 229.378 227.089 230.036 226.284 230.51C225.484 230.979 224.533 231.213 223.429 231.213ZM223.444 228.869C223.945 228.869 224.364 228.727 224.701 228.443C225.037 228.154 225.29 227.761 225.461 227.264C225.636 226.767 225.723 226.201 225.723 225.567C225.723 224.932 225.636 224.366 225.461 223.869C225.29 223.372 225.037 222.979 224.701 222.69C224.364 222.402 223.945 222.257 223.444 222.257C222.937 222.257 222.511 222.402 222.165 222.69C221.824 222.979 221.566 223.372 221.391 223.869C221.221 224.366 221.135 224.932 221.135 225.567C221.135 226.201 221.221 226.767 221.391 227.264C221.566 227.761 221.824 228.154 222.165 228.443C222.511 228.727 222.937 228.869 223.444 228.869ZM233.792 224.693V231H230.766V220.091H233.65V222.016H233.777C234.019 221.381 234.424 220.879 234.992 220.51C235.56 220.136 236.249 219.949 237.059 219.949C237.816 219.949 238.477 220.115 239.04 220.446C239.604 220.777 240.042 221.251 240.354 221.866C240.667 222.477 240.823 223.206 240.823 224.054V231H237.797V224.594C237.802 223.926 237.632 223.405 237.286 223.031C236.94 222.652 236.464 222.463 235.858 222.463C235.451 222.463 235.091 222.551 234.779 222.726C234.471 222.901 234.23 223.157 234.054 223.493C233.884 223.824 233.796 224.224 233.792 224.693ZM248.122 235.318C247.142 235.318 246.302 235.183 245.601 234.913C244.905 234.648 244.351 234.286 243.939 233.827C243.527 233.367 243.259 232.851 243.136 232.278L245.935 231.902C246.02 232.12 246.155 232.323 246.339 232.513C246.524 232.702 246.768 232.854 247.071 232.967C247.379 233.086 247.753 233.145 248.193 233.145C248.851 233.145 249.393 232.984 249.82 232.662C250.25 232.345 250.466 231.812 250.466 231.064V229.068H250.338C250.205 229.371 250.007 229.658 249.741 229.928C249.476 230.197 249.135 230.418 248.719 230.588C248.302 230.759 247.805 230.844 247.227 230.844C246.408 230.844 245.662 230.654 244.99 230.276C244.322 229.892 243.79 229.307 243.392 228.521C242.999 227.731 242.803 226.732 242.803 225.524C242.803 224.288 243.004 223.256 243.406 222.428C243.809 221.599 244.344 220.979 245.011 220.567C245.684 220.155 246.42 219.949 247.22 219.949C247.831 219.949 248.342 220.053 248.754 220.261C249.166 220.465 249.498 220.721 249.749 221.028C250.004 221.331 250.201 221.63 250.338 221.923H250.452V220.091H253.456V231.107C253.456 232.035 253.229 232.811 252.774 233.436C252.32 234.061 251.69 234.53 250.885 234.842C250.085 235.16 249.164 235.318 248.122 235.318ZM248.186 228.571C248.674 228.571 249.086 228.45 249.422 228.209C249.763 227.963 250.023 227.612 250.203 227.158C250.388 226.698 250.48 226.149 250.48 225.51C250.48 224.871 250.39 224.317 250.21 223.848C250.03 223.375 249.77 223.008 249.429 222.747C249.088 222.487 248.674 222.357 248.186 222.357C247.689 222.357 247.27 222.491 246.929 222.761C246.588 223.027 246.33 223.396 246.155 223.869C245.98 224.343 245.892 224.89 245.892 225.51C245.892 226.14 245.98 226.684 246.155 227.143C246.335 227.598 246.593 227.951 246.929 228.202C247.27 228.448 247.689 228.571 248.186 228.571ZM262.261 231.185C261.792 231.185 261.39 231.019 261.054 230.688C260.722 230.351 260.556 229.949 260.556 229.48C260.556 229.016 260.722 228.618 261.054 228.287C261.39 227.955 261.792 227.79 262.261 227.79C262.716 227.79 263.113 227.955 263.454 228.287C263.795 228.618 263.966 229.016 263.966 229.48C263.966 229.793 263.885 230.079 263.724 230.339C263.568 230.595 263.362 230.801 263.106 230.957C262.85 231.109 262.569 231.185 262.261 231.185ZM262.261 223.543C261.792 223.543 261.39 223.377 261.054 223.045C260.722 222.714 260.556 222.312 260.556 221.838C260.556 221.374 260.722 220.979 261.054 220.652C261.39 220.321 261.792 220.155 262.261 220.155C262.716 220.155 263.113 220.321 263.454 220.652C263.795 220.979 263.966 221.374 263.966 221.838C263.966 222.155 263.885 222.444 263.724 222.705C263.568 222.96 263.362 223.164 263.106 223.315C262.85 223.467 262.569 223.543 262.261 223.543ZM267.117 225.169C267.117 223.408 267.352 221.786 267.82 220.304C268.294 218.822 269.016 217.449 269.987 216.185H272.877C272.508 216.653 272.165 217.226 271.847 217.903C271.53 218.576 271.253 219.314 271.016 220.119C270.78 220.924 270.595 221.758 270.462 222.619C270.33 223.476 270.263 224.326 270.263 225.169C270.263 226.291 270.377 227.425 270.604 228.571C270.836 229.712 271.149 230.773 271.542 231.753C271.94 232.733 272.385 233.536 272.877 234.161H269.987C269.016 232.896 268.294 231.523 267.82 230.041C267.352 228.559 267.117 226.935 267.117 225.169Z" fill="#8D8D8D"/>
<rect x="81.5" y="79.5" width="133" height="89" rx="8.5" stroke="#8D8D8D" stroke-width="7"/>
<line x1="149" y1="171" x2="149" y2="189" stroke="#8D8D8D" stroke-width="10"/>
<line x1="82" y1="186" x2="214" y2="186" stroke="#8D8D8D" stroke-width="8" stroke-linecap="round"/>
<path d="M122 147.5V147.5C136.846 134.367 159.154 134.367 174 147.5V147.5" stroke="#8D8D8D" stroke-width="3" stroke-linecap="round"/>
<line x1="121.828" y1="105" x2="136.678" y2="119.849" stroke="#8D8D8D" stroke-width="4" stroke-linecap="round"/>
<line x1="121.651" y1="119.867" x2="136.5" y2="105.018" stroke="#8D8D8D" stroke-width="4" stroke-linecap="round"/>
<line x1="158.828" y1="105" x2="173.678" y2="119.849" stroke="#8D8D8D" stroke-width="4" stroke-linecap="round"/>
<line x1="158.651" y1="119.867" x2="173.5" y2="105.018" stroke="#8D8D8D" stroke-width="4" stroke-linecap="round"/>
</svg>
