<svg width="48" height="48" viewBox="0 0 48 48" fill="none" xmlns="http://www.w3.org/2000/svg">
<circle cx="23.9799" cy="24.3825" r="22.4094" fill="#FFC774"/>
<path d="M24 45.745C12.0098 45.745 2.25503 35.9902 2.25503 24C2.25503 12.0098 12.0098 2.25504 24 2.25504C35.9903 2.25504 45.745 12.0098 45.745 24C45.745 35.9902 35.9903 45.745 24 45.745ZM24 1.99676e-06C10.7663 1.99676e-06 0 10.7663 0 24C0 37.2337 10.7663 48 24 48C37.2337 48 48 37.2337 48 24C48 10.7663 37.2337 1.99676e-06 24 1.99676e-06Z" fill="#282828"/>
<path d="M43.0149 20.1115C41.6755 13.5664 36.9398 8.07107 30.6557 5.77013C30.071 5.55591 29.4233 5.85647 29.2092 6.44117C28.9952 7.02603 29.2956 7.67355 29.8804 7.88761C35.4355 9.92181 39.6219 14.7788 40.8056 20.5636C40.9148 21.0974 41.3846 21.4653 41.9091 21.4653C41.984 21.4653 42.06 21.4578 42.1362 21.4421C42.7464 21.3173 43.1397 20.7217 43.0149 20.1115Z" fill="#282828"/>
<path d="M23.9725 4.59034C19.5805 4.59034 15.4364 6.01971 11.9879 8.72381C11.4979 9.10798 11.4122 9.8167 11.7964 10.3067C12.0189 10.5903 12.3499 10.7385 12.6846 10.7385C12.9278 10.7385 13.1731 10.6601 13.3794 10.4982C16.427 8.10851 20.0899 6.84537 23.9725 6.84537C24.5952 6.84537 25.1 6.34057 25.1 5.71785C25.1 5.09514 24.5952 4.59034 23.9725 4.59034Z" fill="#282828"/>
<path d="M35.6516 33.8014C35.6484 33.8127 35.6435 33.8239 35.6387 33.8352C35.6355 33.8449 35.6322 33.8529 35.629 33.8626C35.2328 34.974 34.5901 36.0162 33.8105 36.8634C33.1275 37.606 32.3383 38.2003 31.52 38.5579C30.3313 39.0766 29.149 39.0911 28.007 38.5982C26.4945 37.9474 26.0194 37.0889 25.2977 35.789C24.4038 34.1783 23.2908 32.1729 19.8873 30.1289C17.5646 28.7356 15.163 28.1912 13.0465 27.7096C9.23386 26.8446 7.54419 26.3276 7.4411 23.1141C7.43627 22.9708 7.4411 22.8258 7.4556 22.6776C7.47815 22.4441 7.52486 22.2057 7.59412 21.9625C8.2207 19.7493 10.698 17.2221 14.079 15.4696C16.508 14.21 19.5474 13.3031 22.6626 13.3031C25.5055 13.3031 28.4129 14.0602 30.9756 15.9963C34.6706 18.7877 36.589 22.6019 36.6744 27.3311C36.7404 30.9359 35.6693 33.7563 35.6516 33.8014ZM38.931 27.3762C38.8553 21.9576 36.5745 17.3992 32.3351 14.1971C26.1273 9.50502 18.2975 10.7437 13.0416 13.4674C8.70231 15.7128 5.78527 18.9778 5.265 22.0462C5.20218 22.4312 5.1748 22.8113 5.18607 23.1866C5.35037 28.2766 9.00835 29.1061 12.5471 29.9099C14.4994 30.3528 16.7125 30.8554 18.7259 32.0634C21.6124 33.795 22.4838 35.3654 23.3262 36.8827C24.0977 38.2744 24.8967 39.7144 27.1147 40.6696C27.7573 40.9466 28.4177 41.1174 29.0846 41.1818C29.2892 41.2027 29.4937 41.2124 29.6983 41.2124C30.6084 41.2124 31.5265 41.0159 32.4237 40.6229C33.2097 40.2782 33.9619 39.7885 34.6513 39.1893C36.0124 38.0054 37.1254 36.3899 37.76 34.6019C37.7665 34.5842 37.7778 34.5552 37.7906 34.5182C37.7922 34.5166 37.7922 34.5133 37.7939 34.5117C38.0113 33.9174 38.9826 31.0438 38.931 27.3762Z" fill="#282828"/>
<path d="M15.2703 20.4985C15.2544 20.4985 15.2384 20.4988 15.2223 20.4993C14.8802 20.5119 14.5635 20.6569 14.3305 20.9077C14.0975 21.1583 13.9759 21.4848 13.9885 21.8267C14.0144 22.5327 14.6138 23.0873 15.3159 23.0604C15.658 23.048 15.9745 22.903 16.2076 22.6522C16.4407 22.4015 16.5621 22.0751 16.5496 21.7332C16.5372 21.391 16.3922 21.0744 16.1414 20.8413C15.9025 20.6193 15.5949 20.4985 15.2703 20.4985ZM15.2674 25.3164C13.3767 25.3164 11.8047 23.8141 11.7351 21.9092C11.6637 19.9605 13.1912 18.3171 15.1398 18.2459C16.0837 18.2116 16.9846 18.5465 17.6766 19.1896C18.3686 19.8326 18.7687 20.7066 18.8031 21.6507C18.8743 23.5994 17.3469 25.2428 15.3984 25.314C15.3546 25.3156 15.3109 25.3164 15.2674 25.3164Z" fill="#282828"/>
<path d="M28.6855 28.8631L26.1037 26.9083L27.7184 24.3806L30.3391 26.3649L28.6855 28.8631ZM35.0225 27.0824L33.3878 25.8446L34.9226 23.5258C35.2664 23.0066 35.124 22.3069 34.6048 21.9634C34.0857 21.6196 33.3861 21.7619 33.0423 22.2812L31.5863 24.4808L28.9365 22.4743L30.1693 20.5446C30.5045 20.0198 30.3509 19.3227 29.8261 18.9875C29.3012 18.6522 28.604 18.8058 28.269 19.3306L27.1329 21.1089L25.5858 19.9375C25.0894 19.5614 24.3821 19.6592 24.0063 20.1558C23.6304 20.6522 23.7282 21.3593 24.2246 21.7353L25.9149 23.0152L24.3001 25.5427L22.7388 24.3606C22.2424 23.9847 21.5353 24.0824 21.1594 24.5789C20.7834 25.0753 20.8812 25.7826 21.3776 26.1584L23.0823 27.449L22.0677 29.0369C21.7325 29.5617 21.8861 30.2588 22.4109 30.5942C22.5989 30.7143 22.8091 30.7717 23.0167 30.7717C23.3888 30.7717 23.753 30.5877 23.968 30.2509L24.8858 28.8145L27.4383 30.7474L26.32 32.4369C25.9763 32.956 26.1187 33.6557 26.6378 33.9993C26.8295 34.1262 27.0455 34.1868 27.2592 34.1868C27.6247 34.1868 27.9834 34.0093 28.2004 33.6815L29.2398 32.1112L30.8143 33.3034C31.0179 33.4576 31.2569 33.532 31.494 33.532C31.835 33.532 32.1721 33.3779 32.3938 33.0852C32.7697 32.5888 32.6719 31.8815 32.1755 31.5055L30.487 30.2271L32.1406 27.7288L33.6613 28.8802C33.8649 29.0345 34.1039 29.1089 34.341 29.1089C34.682 29.1089 35.019 28.9548 35.2408 28.6619C35.6167 28.1655 35.5189 27.4582 35.0225 27.0824Z" fill="white"/>
<path d="M29.0846 41.1818C19.6666 42.2852 13.5362 38.7093 9.29349 33.0202C4.56758 26.6852 5.1861 23.1866 5.1861 23.1866C5.3504 28.2766 9.00839 29.1061 12.5472 29.9098C14.4994 30.3528 16.7125 30.8554 18.726 32.0634C21.6124 33.7949 22.4838 35.3654 23.3262 36.8827C24.0978 38.2744 24.8967 39.7144 27.1147 40.6696C27.7574 40.9466 28.4178 41.1174 29.0846 41.1818Z" fill="white"/>
</svg>
